<?xml version="1.0" encoding="utf-8"?>
<!-- Generator: Adobe Illustrator 23.0.3, SVG Export Plug-In . SVG Version: 6.00 Build 0)  -->
<svg version="1.1" id="Layer_1" xmlns="http://www.w3.org/2000/svg" xmlns:xlink="http://www.w3.org/1999/xlink" x="0px" y="0px"
	 viewBox="0 0 190 56" style="enable-background:new 0 0 190 56;" xml:space="preserve">
<style type="text/css">
	.st0{fill-rule:evenodd;clip-rule:evenodd;}
</style>
<title>Humble_White</title>
<desc>Created with Sketch.</desc>
<g id="Page-1">
	<path id="Humble_White" class="st0" d="M54.5,27.6c0-0.2,0.1-0.4,0.1-0.6c1.5,0,6.8,0,7.7,0c-0.7,4.3-4.1,21.3,1.1,21.3
		c6.1,0,9.2-21.3,9.2-21.3h3.7h2.9c-0.4,3-3.2,22.2-1.1,22.2c1.3,0,2.8-1.9,4.4-4.4L84,27l8.1,0l-0.3,4.9c0,0,3.1-6,10.8-6
		c3.1,0,5.8,1.6,6.5,5.4c1-1.5,4.3-5.4,10.5-5.4c3.6,0,6.7,2.1,6.7,7.3c0,2.4-0.9,7.3-0.9,7.3c-0.5,3.5-0.6,4.9,0.5,4.9
		c0.6,0,2.3-1.8,4.3-4.1c0-0.2,0-0.5,0-0.7c-0.3-19.3,7.5-39.7,7.5-39.7h6.7c0,0-5.6,16.6-7.3,29.7c0,0,3-4.6,10.7-4.6
		c3.6,0,6.7,2.2,6.7,7.3c0,6-4,14.1-9.1,18.5c-4.6,4-13,7.4-14.9-6.2c-2.1,2.9-4.1,5.4-4.8,6.2c-1.6,1.8-4,3.5-6.2,3.5
		c-3.2,0-3-4.1-1.6-14.8l0.1-0.7c0.5-4.8,0.3-8-1.5-8c-2.3,0-6.6,2.7-7.6,8c-0.5,4.8-1.6,9.2-2.4,14.4h-7.4
		c1.5-11.8,3.7-22.4,0.4-22.4c-2.5,0-7.3,3.1-7.7,9.3l-1.2,13.1h-8.9l0.1-1.7c-1.5,1.4-3.4,2.5-5.2,2.5c-2,0-3.9-1.6-4.7-5.5
		c-0.5,0.6-1,1.2-1.7,1.8c-2.2,1.9-5.5,3.7-8.6,3.5c-3.7-0.2-7-2.6-7.8-10.6c-1.6,2.9-3.6,5.6-5.9,7.5c-5.1,4.4-16.5,8.1-16.8-11.2
		C31,37,31.2,33.4,31.6,30h-6.8c-2.1,13.4-6.3,24.3-6.3,24.3h-8.3c0,0,12.3-43.7,4.3-43.7C6.4,10.5,3.8,22,3.8,22S0.4,21.2,0,21.1
		C0.4,15.2,4.2,7.7,9.1,3.5c5.1-4.4,16.5-8.1,16.8,11.2c0,2.4,0,4.9-0.2,7.3h7.1C35,10.3,38.6,1.3,38.6,1.3h8.3
		c0,0-12.3,43.5-4.3,43.5C50.2,44.8,53.6,32.2,54.5,27.6z M171.1,52.6c-5.2,3.3-15.3,7.1-15.6-12.1c-0.3-19.3,7.5-39.7,7.5-39.7h6.7
		c0,0-12.1,47.5-4.1,47.5c0.4,0,1.6-0.5,3-1.3c-0.4-1.8-0.6-4-0.7-6.6c-0.2-8.5,4.4-14.6,12.1-14.6c3.6,0,6.7,2.2,6.7,7.3
		c0,0.5-0.1,1-0.2,1.6c-0.1,1.8-3.5,7.5-9.1,12.8c0.5,0.4,1.2,0.6,2.1,0.6c3.8,0,6.1-1.4,7.5-2.9l2.1,1c-0.8,1.7-2.1,3.5-4.4,5.5
		C181.4,54.8,174.9,57.4,171.1,52.6z M181.3,34.2c0-0.8-0.3-2.8-2.6-2.8c-4,0-5.7,7.3-4.2,12.1C174.4,43.5,181.3,38.1,181.3,34.2z
		 M138.6,48.3c3.8,0,7-6.6,8.6-10c1.9-4.2,1.1-6.4-2.5-6.4c-2.5,0-7.9,1.5-7.9,7.7C136.7,42.6,137,48.3,138.6,48.3z"/>
</g>
</svg>
