<svg xmlns="http://www.w3.org/2000/svg" viewBox="0 0 260.05 47.7"><title>glumberland</title><g id="Layer_2" data-name="Layer 2"><g id="Layer_1-2" data-name="Layer 1"><path d="M106.55,25.2a1.76,1.76,0,0,0-1.9,1.8,2.12,2.12,0,0,0,2.2,2,1.52,1.52,0,0,0,1.6-2.1A2.13,2.13,0,0,0,106.55,25.2Z"/><path d="M130.35,23.1a1.92,1.92,0,0,0-1.9,2,2.24,2.24,0,0,0,1.1,1.8,2.16,2.16,0,0,0,3.1-1.1c0-.2.1-.5.1-.7A2.36,2.36,0,0,0,130.35,23.1Z"/><path d="M189.15,22.9c.1,0,.3.1.4.1.7.1,1.6-.4,1.4-1.2a1.08,1.08,0,0,0-.7-1.1,1.67,1.67,0,0,0-1.2.1,1.22,1.22,0,0,0-.6,1.2C188.45,22.5,188.75,22.7,189.15,22.9Z"/><path d="M258.85,8.8a9.59,9.59,0,0,0-4.8-5.1,9.37,9.37,0,0,0-3.6-.8,11,11,0,0,0-1.8.2,7.74,7.74,0,0,0-4.5,3.1,14.2,14.2,0,0,0-1.6,3.5,36.77,36.77,0,0,0-1,5,13.55,13.55,0,0,0-2-.2h-.8a14.31,14.31,0,0,0-1.51.07,5.24,5.24,0,0,0-3-3,4.19,4.19,0,0,0-1.5-.4c-.1,0-.7-.1-.8-.1a2.19,2.19,0,0,1-.3-.5,5.09,5.09,0,0,0-8.7.1,6.19,6.19,0,0,0-.7,1.9v.2c0,.2-.1.4-.1.6l-.9.6-.1.1a8.13,8.13,0,0,0-.71.58,6.87,6.87,0,0,0-1.19-.08,11.78,11.78,0,0,0-4.5,1,2.19,2.19,0,0,1-.5.3,11.75,11.75,0,0,0-3.6-2.1,10.3,10.3,0,0,0-4.1-.8h-1.1a8.93,8.93,0,0,0-5.22,1.67,8.53,8.53,0,0,0-.68-1,7,7,0,0,0-5.1-2.9h-.6a6.11,6.11,0,0,0-3,.8,8.68,8.68,0,0,0-4.2-1h-.9a7.39,7.39,0,0,0-1.8.3l-.37.14,0-.24a18,18,0,0,0-1.4-5.1,13.81,13.81,0,0,0-2.5-3.8,6.6,6.6,0,0,0-4.6-1.9,6.74,6.74,0,0,0-3.4,1,7.72,7.72,0,0,0-2.5,2.3,13.71,13.71,0,0,0-2.7,5.7c-.13.5-.27,1-.4,1.58a10.3,10.3,0,0,0-2.2-1.18,8.66,8.66,0,0,0-3.2-.6h-.1a8.68,8.68,0,0,0-4.2,1,10.59,10.59,0,0,0-2.9,2.2,10.52,10.52,0,0,0-5-1.4h-1.1c-.3,0-.7.1-1.1.1a11.25,11.25,0,0,0-7.3,3.5,8.65,8.65,0,0,0-.89,1.15l-.31-.25a10.49,10.49,0,0,0-6.4-2.5h-.7a14.44,14.44,0,0,0-6.2,1.4,20.8,20.8,0,0,0-4.1,2.7,16.13,16.13,0,0,0-1.9,2,9.65,9.65,0,0,0-1.1-.8,19.61,19.61,0,0,0-2.1-1.2,13.61,13.61,0,0,0-5.4-1.6,14.32,14.32,0,0,0-1.3-4.6,11.55,11.55,0,0,0-4.8-5.4A9.16,9.16,0,0,0,99.45,4a8.39,8.39,0,0,0-6,2.5,11.08,11.08,0,0,0-2.65,4.43A13.75,13.75,0,0,0,88.05,9.8a7.27,7.27,0,0,0-2.5-.4,8.4,8.4,0,0,0-6.4,3.1l-.9,1.2a16.19,16.19,0,0,0-5.5-4.1,11.44,11.44,0,0,0-4.3-.9l-.36,0c0-.07,0-.15,0-.22a4.87,4.87,0,0,0-3.5-3.8,9.85,9.85,0,0,0-1.7-.2l-.1-.1a4.91,4.91,0,0,0-8.1,1,4.92,4.92,0,0,0-.5,2v.3l-.2.2a4.81,4.81,0,0,0-1.81,3.56,7.7,7.7,0,0,0-1.89-.66,7.08,7.08,0,0,0-1.4-.1,5.19,5.19,0,0,0-1.05.11A14,14,0,0,0,46.15,7.3a10.42,10.42,0,0,0-3.2-3,7.22,7.22,0,0,0-3.2-.8,6.56,6.56,0,0,0-4.4,1.7,8,8,0,0,0-2.2,3.4,14.73,14.73,0,0,0-.73,3.27A8.41,8.41,0,0,0,30.25,9.4a13.85,13.85,0,0,0-3.3-2,14.24,14.24,0,0,0-5.3-1.3h-.8a16.55,16.55,0,0,0-6.1,1.2,17,17,0,0,0-5.2,3.1c-.8.7-1.4,1.3-2,1.9a26.25,26.25,0,0,0-6.4,10.4,21.07,21.07,0,0,0-1,9.2,18.57,18.57,0,0,0,2.5,7.4,17,17,0,0,0,7.6,7,14.59,14.59,0,0,0,6,1.4c.1,0,.2,0,0-.1a15.16,15.16,0,0,0,2.3-.2,15.15,15.15,0,0,0,6.8-2.8,7.55,7.55,0,0,0,1.4-1.1,9.27,9.27,0,0,0,3.4,1.3,6.6,6.6,0,0,0,1.4.1,9.15,9.15,0,0,0,1.6-.1,8.41,8.41,0,0,0,3.9-1.4,11.37,11.37,0,0,0,1.55-1.35,9.58,9.58,0,0,0,2.15,1,13.55,13.55,0,0,0,4.1.6,14.93,14.93,0,0,0,1.9-.1l4.4-.6a24.22,24.22,0,0,0,5.6-1.5A13.84,13.84,0,0,0,60,39.66a7,7,0,0,0,4.5,1.94H65a6.21,6.21,0,0,0,4.4-1.7,17.41,17.41,0,0,0,1.2-1.4,9.68,9.68,0,0,0,2.2,1.9,7.54,7.54,0,0,0,4.1,1.2h.2a6.35,6.35,0,0,0,5-2.7v-.1a12.45,12.45,0,0,0,2.2,1.6,8.92,8.92,0,0,0,4.5,1.2,1.7,1.7,0,0,1,.7.1,6.83,6.83,0,0,0,4-1.6,13.2,13.2,0,0,0,2.77-3.48,15.61,15.61,0,0,0,11.23,5,7.55,7.55,0,0,0,2.3-.3,22.57,22.57,0,0,0,6.3-2.2,13.58,13.58,0,0,0,4-3.2,17.31,17.31,0,0,0,1.83,1.8,13.17,13.17,0,0,0,8.5,3.2l.4-.3h.7a11.14,11.14,0,0,0,1.7-.2,21.48,21.48,0,0,0,9.68-5.14,11.81,11.81,0,0,0,6.52,4.84,6.72,6.72,0,0,0,2.4.4h.2a14,14,0,0,0,3.5-.8h.1c.25-.09.47-.22.71-.33a5,5,0,0,0,1.49,1.13,4.57,4.57,0,0,0,3,3.7,4.67,4.67,0,0,0,1.7.3,5,5,0,0,0,3.6-1.6,12.49,12.49,0,0,0,.9-1.2s.3-.3.3-.4c.2-.1.4-.1.6-.2a4.86,4.86,0,0,0,1.48-.78,8,8,0,0,0,2.12,1.18,12.25,12.25,0,0,0,4.9.9h.9c.9,0,1.8-.1,3.1-.1h.8a14.08,14.08,0,0,0,2.1-.1c1.3-.1,2.6-.2,3.7-.3l2.6-.3a9.19,9.19,0,0,0,3.3-1.1,6.21,6.21,0,0,0,2.6-3c.1-.5.3-1,.4-1.6a7.85,7.85,0,0,0-.25-3.27h0c.12.54.25,1.07.41,1.58a12.32,12.32,0,0,0,2.4,4.7,9.66,9.66,0,0,0,7.7,3.8h.5a7.34,7.34,0,0,0,5.5-2.6l.1-.1.3.3a12.68,12.68,0,0,0,7.8,2.9h.3a8.5,8.5,0,0,0,4.8-1.5,15.06,15.06,0,0,0,2.36-2.14,13,13,0,0,0,2.44,2.14,17.39,17.39,0,0,0,9.8,3h1.2a17.07,17.07,0,0,0,4.6-.9l.1.1a8.21,8.21,0,0,0,3.1,1.1,7.57,7.57,0,0,0,1.5.1,7.71,7.71,0,0,0,5.9-2.8l.1-.1a11.49,11.49,0,0,0,.8-1,10.8,10.8,0,0,0,2-6.5,7.06,7.06,0,0,0-1.9-4.6,1.45,1.45,0,0,1,.2-.7,50.45,50.45,0,0,0,1.9-8.1,46.79,46.79,0,0,0,.5-6v-1A13,13,0,0,0,258.85,8.8Zm-32.6,6.7c.1-.7.3-1.4.4-2.1.1-.2.1-.4.2-.5a.77.77,0,0,1,1.4,0,17.39,17.39,0,0,0,1.1,1.8,1,1,0,0,0,1,.6,16.35,16.35,0,0,1,2.2.2c.1,0,.2.1.3.1.4.2.6.4.6.8s-.1.5-.4.7c-.7.4-1.4.9-2.1,1.3a1.13,1.13,0,0,0-.5.8c-.1.8-.3,1.5-.4,2.2a.6.6,0,0,1-.1.4.94.94,0,0,1-.9.5c-.3,0-.4-.2-.4-.5-.4-.6-.8-1.3-1.2-1.9a.91.91,0,0,0-.8-.4l-2.5-.3c-.2,0-.4-.2-.6-.3a.71.71,0,0,1,.1-1.2c.6-.4,1.3-.8,2-1.2A1.33,1.33,0,0,0,226.25,15.5Zm-41.2-.4c.5-.1,1.1-.1,1.6-.2a5.78,5.78,0,0,1,3.2,1,3.33,3.33,0,0,1,1.2,1.4.51.51,0,0,0,.5.4c.2,0,.3-.2.4-.4a3.55,3.55,0,0,1,.4-.9,5.5,5.5,0,0,1,.7-.9c.3-.4.7-.4,1.2-.4a3,3,0,0,1,2.1,1.3,5.32,5.32,0,0,1,1.2,2.9,12.86,12.86,0,0,1,.3,3.9,7.49,7.49,0,0,1-1.4,4.1,2.31,2.31,0,0,1-2.3,1,3.85,3.85,0,0,1-2.9-1.7,2,2,0,0,1-.4-.8.37.37,0,0,0-.1-.3.38.38,0,0,0-.7,0c0,.1-.1.3-.1.4a2.59,2.59,0,0,1-2.2,1.7,6.42,6.42,0,0,1-6-2.7,6.3,6.3,0,0,1-1-3,6.59,6.59,0,0,1,.5-3.4A5.84,5.84,0,0,1,185.05,15.1ZM163.91,27.81l.44-.18v.21C164.21,27.83,164.06,27.81,163.91,27.81Zm-2.55.69a.38.38,0,0,0,0-.1l.25,0ZM58.45,9.2c0-.5.1-1.1.1-1.6a.37.37,0,0,1,.1-.3.52.52,0,0,1,.9-.1l1.1,1.4a.71.71,0,0,0,.6.3,7.57,7.57,0,0,1,1.5-.1,1.48,1.48,0,0,1,.7.1.66.66,0,0,1,.2,1.1,13.44,13.44,0,0,0-1.4,1.1.91.91,0,0,0-.3.7c0,.5-.1,1.1-.1,1.7,0,.4-.2.7-.6.7-.2,0-.3-.1-.4-.3-.4-.4-.7-.9-1.1-1.3a.91.91,0,0,0-.7-.3,8.6,8.6,0,0,1-1.6.1h-.3c-.3-.1-.5-.2-.6-.5a.62.62,0,0,1,.2-.7c.5-.4.9-.8,1.3-1.1A1.09,1.09,0,0,0,58.45,9.2Zm-9,5.7a3.73,3.73,0,0,1,2.8,3.3v1.9a1.7,1.7,0,0,0,.1.7.85.85,0,0,0,.8.7A.75.75,0,0,0,54,21a3,3,0,0,0,.2-1,12.75,12.75,0,0,0,.1-1.9,5.22,5.22,0,0,1,.4-2.1,1.42,1.42,0,0,1,.9-.8,2.46,2.46,0,0,1,1.7.2A4.21,4.21,0,0,1,59,17.2a10.68,10.68,0,0,1,.3,2.5,12.63,12.63,0,0,1-1.1,5.1,7.43,7.43,0,0,1-1.3,2.1,3.73,3.73,0,0,1-3.3,1.2,8.86,8.86,0,0,1-4.2-1.5,4.61,4.61,0,0,1-2.1-2.8,11.58,11.58,0,0,1-.5-4.9c.1-.6.1-1.2.2-1.8a2.81,2.81,0,0,1,.6-1.5A1.66,1.66,0,0,1,49.45,14.9ZM32.75,40.6a4.3,4.3,0,0,1-1.6,0,3.65,3.65,0,0,1-3-2.2c-.1-.3-.3-.7-.4-1.1s-.4-.6-.8-.6a.76.76,0,0,0-.9.5c-.1.1-.1.3-.2.5a7.25,7.25,0,0,1-2.7,3.5,10.27,10.27,0,0,1-4.8,2,8.81,8.81,0,0,1-1.7.2,10.9,10.9,0,0,1-4.4-1,12.71,12.71,0,0,1-5.7-5.3,14.79,14.79,0,0,1-1.9-5.7,16.49,16.49,0,0,1,.8-7.3,21.76,21.76,0,0,1,5.3-8.7c.6-.6,1.2-1.1,1.8-1.7a13,13,0,0,1,3.8-2.2,11,11,0,0,1,5.1-.9,9.58,9.58,0,0,1,3.7.9,15.76,15.76,0,0,1,2.4,1.5,5.8,5.8,0,0,1,1.8,3,6.61,6.61,0,0,1-.3,3.4,4.06,4.06,0,0,1-3.3,2.6,5.46,5.46,0,0,1-1.8-.1,15.17,15.17,0,0,0-2.1-.3,4.72,4.72,0,0,0-4.7,2.7,6.07,6.07,0,0,0-.5,1.8,5.79,5.79,0,0,0,.3,3.2,3.13,3.13,0,0,0,2.5,2.2,5,5,0,0,0,2.1-.1,21.85,21.85,0,0,0,2.3-.9,1.05,1.05,0,0,0,.5-.9.75.75,0,0,0-.6-.7c-.1,0-.2-.1-.3-.1s-.3-.1-.5-.2a1,1,0,0,1,0-1.8,18.29,18.29,0,0,1,2.5-.8c1.9-.5,3.7-.9,5.6-1.3a13.4,13.4,0,0,1,2-.1,1,1,0,0,1,.7.4,5.6,5.6,0,0,1,1,1.5A13.86,13.86,0,0,1,36,30.1a21.27,21.27,0,0,1,.7,4.4,3.26,3.26,0,0,0,.4,1.3,4.56,4.56,0,0,1-2.2,4.1A5.22,5.22,0,0,1,32.75,40.6Zm22.3-3.3a24.93,24.93,0,0,1-4.7,1.2c-1.4.2-2.7.4-4.1.5a11.94,11.94,0,0,1-4.2-.3,4.7,4.7,0,0,1-2.5-1.9,4.8,4.8,0,0,1-.5-1.7c-.1-.8-.1-1.5-.2-2.3-.1-1.2-.2-2.3-.3-3.5-.1-.8-.2-1.7-.3-2.5-.3-1.6-.6-3.2-.8-4.8-.2-1.2-.4-2.4-.5-3.6-.2-1.6-.2-3.1-.3-4.7a9,9,0,0,1,.5-3.6,3.67,3.67,0,0,1,1-1.7,2.11,2.11,0,0,1,2.6-.3,4,4,0,0,1,1.7,1.7,9.34,9.34,0,0,1,1.4,3.6c.2,1.2.4,2.5.6,3.7.1,1,.2,1.9.3,2.9s.1,2.1.2,3.1.2,2.1.3,3.2c.1.7.1,1.4.2,2.1.1,1.1.3,2.3.4,3.5.3,0,.4-.1.6-.1,1.4-.3,2.8-.7,4.3-1a12.68,12.68,0,0,1,3.4-.3,5.77,5.77,0,0,1,3.7,1.3,2.65,2.65,0,0,1-.2,4.1A13,13,0,0,1,55.05,37.3Zm38-4.8a8.83,8.83,0,0,1-2.7,4.4,2.39,2.39,0,0,1-1.4.5,4.17,4.17,0,0,1-2.7-.6,8,8,0,0,1-4-5,6.51,6.51,0,0,1-.1-3.1.76.76,0,0,0,.1-.4.67.67,0,0,0-.5-.7.64.64,0,0,0-.7.5c-.2.6-.4,1.3-.6,1.9-.4,1.4-.7,2.8-1.1,4.1a7.2,7.2,0,0,1-1,2.4,1.8,1.8,0,0,1-1.6.9,2.75,2.75,0,0,1-2-.5,6.56,6.56,0,0,1-1.9-1.8,9,9,0,0,1-1.6-4.3,12.75,12.75,0,0,1-.1-2,11.08,11.08,0,0,1,.2-1.9v-.1a.62.62,0,0,0-.5-.8c-.3-.1-.6.1-.7.5a12.09,12.09,0,0,1-.5,1.8c-.6,1.8-1.1,3.7-1.7,5.5a9.73,9.73,0,0,1-1.1,2.3,5,5,0,0,1-.7.8,2.31,2.31,0,0,1-1.7.5,3.73,3.73,0,0,1-2.9-2.1,7.59,7.59,0,0,1-1.1-3.6c0-1.2-.1-2.5-.2-3.7a27.33,27.33,0,0,1,1.1-8.1,18.39,18.39,0,0,1,1.9-4,6,6,0,0,1,3.8-2.6,5.54,5.54,0,0,1,3.8.4,10.55,10.55,0,0,1,5.9,6.5,12.5,12.5,0,0,1,.3,1.9.71.71,0,0,0,.3.6.58.58,0,0,0,.9-.2,3,3,0,0,0,.4-.8c.8-1.6,1.6-3.1,2.4-4.6a20.28,20.28,0,0,1,1.3-1.8,3.94,3.94,0,0,1,4.5-1.4,7.63,7.63,0,0,1,3.7,2.1,9.23,9.23,0,0,1,1.8,3,14.08,14.08,0,0,1,1.1,5.1,33.81,33.81,0,0,1,.1,4.5A26,26,0,0,1,93.05,32.5Zm21.2,2.9a17.39,17.39,0,0,1-5,1.7,10.77,10.77,0,0,1-8.3-2,11.32,11.32,0,0,1-4-5.4,39.51,39.51,0,0,1-1.6-5.9c-.2-1.3-.5-2.6-.6-3.9s-.2-2.6-.3-3.9a12.74,12.74,0,0,1,.2-2.8,7,7,0,0,1,1.9-3.6,4.12,4.12,0,0,1,5.1-.6,7.05,7.05,0,0,1,3.1,3.5,10.31,10.31,0,0,1,1,5.2c0,.3-.1.6-.1.9V19c0,.5.3.8.8.7a19.42,19.42,0,0,1,2.4-.2,9.2,9.2,0,0,1,4.6,1.1,18.58,18.58,0,0,1,1.9,1.1,7.07,7.07,0,0,1,3,3.8,8.17,8.17,0,0,1,.5,3.8,6.64,6.64,0,0,1-.6,2A8.83,8.83,0,0,1,114.25,35.4Zm17.8,1.1c-.5.1-1.1.1-1.6.2a9.75,9.75,0,0,1-5.9-2.2,12,12,0,0,1-4.1-7.2,7.53,7.53,0,0,1,.8-5.1,8.73,8.73,0,0,1,2-2.3,12.09,12.09,0,0,1,3-2,9.81,9.81,0,0,1,4.8-.9,7.11,7.11,0,0,1,4,1.6,8,8,0,0,1,1.3,1.3,3.46,3.46,0,0,1,.8,1.6,3.27,3.27,0,0,1-.4,2.4,5.46,5.46,0,0,1-1.8,1.9c-.5.3-1.1.6-1.6.9-.1.1-.3.2-.4.4a.51.51,0,0,0,.5.7,5.58,5.58,0,0,0,3.1-.6c.7-.3,1.5-.7,2.2-1,.2-.1.3-.1.5-.2a1.71,1.71,0,0,1,2,.5,3.21,3.21,0,0,1,.6,3.5,5.5,5.5,0,0,1-1.3,1.7A16.88,16.88,0,0,1,132.05,36.5Zm19.8,0a5,5,0,0,1-1.2-.2,8,8,0,0,1-4.6-3.7,45.9,45.9,0,0,1-2.4-5c-.7-1.9-1.5-3.8-2.1-5.8a5.93,5.93,0,0,1-.4-1.7,3.62,3.62,0,0,1,1-2.7,7.15,7.15,0,0,1,4.7-2.2,5.7,5.7,0,0,1,1.3-.1,6,6,0,0,1,3.4.9,5.78,5.78,0,0,1,2.1,2c.1.1.1.2.2.3a.71.71,0,0,0,1.2-.2c.2-.4.3-.8.5-1.2a7.17,7.17,0,0,1,3-3.2,5.45,5.45,0,0,1,2.2-.5,4.67,4.67,0,0,1,1.7.3,6.72,6.72,0,0,1,3.7,3.7,4.42,4.42,0,0,1,0,3.2,6.17,6.17,0,0,1-5,3.7,8,8,0,0,1-3.7-.8c-.1-.1-.1-.1-.2-.1-.5-.2-.9.2-.9.9s.3,1.1.4,1.6a18.81,18.81,0,0,1,.5,3.3,16.2,16.2,0,0,1,.1,2.2,6.49,6.49,0,0,1-.8,2.7,3.78,3.78,0,0,1-2.3,2A7.06,7.06,0,0,1,151.85,36.5Zm13,1c-.4.1-.5.3-.7.6l-.9,1.5a1.38,1.38,0,0,1-.3.4.66.66,0,0,1-.7.2.55.55,0,0,1-.3-.5c-.1-.6-.2-1.1-.3-1.7-.1-.3-.2-.5-.5-.6-.5-.2-1-.5-1.5-.7a.67.67,0,0,1-.4-.7c0-.4.1-.6.5-.7.6-.2,1.2-.3,1.8-.5a1,1,0,0,0,.6-.5c.3-.5.6-1.1.9-1.6.1-.1.2-.3.3-.4.4-.3.8-.2.9.3l.3,1.8a.7.7,0,0,0,.4.5c.5.2,1.1.5,1.6.7a3.39,3.39,0,0,1,.6.6.66.66,0,0,1-.5.8A12.09,12.09,0,0,1,164.85,37.5Zm26.6-2.4-.3.9a1.58,1.58,0,0,1-.7.7,7,7,0,0,1-1.9.6l-2.4.3-3.7.3c-.7,0-1.3.1-1.9.1-1.4.1-2.7.1-4.1.1a10.3,10.3,0,0,1-3.5-.6,3.35,3.35,0,0,1-1.7-1.2,10.55,10.55,0,0,1-2.1-4.4,17.56,17.56,0,0,1-.6-3.9c-.1-1.4-.1-2.8-.1-4.2,0-1,.1-2,.2-3l.3-2.7c.2-1.5.4-3.1.7-4.6.2-1.1.4-2.2.7-3.3a11.38,11.38,0,0,1,1.9-4.2,4.89,4.89,0,0,1,1.3-1.2,2.15,2.15,0,0,1,2.8.3A8.21,8.21,0,0,1,178,7.6a12.54,12.54,0,0,1,1.1,3.9,21.74,21.74,0,0,1,.2,3.6c-.1,1.4-.1,2.8-.2,4.2-.1,1.6-.2,3.1-.4,4.7s-.4,3.3-.6,4.9v.4a6.88,6.88,0,0,1,1.3-.2A11.33,11.33,0,0,1,182,29c.7.1,1.5.1,2.2.2a15.77,15.77,0,0,1,3.7,1.1,5.77,5.77,0,0,1,2.7,2.2,4.57,4.57,0,0,1,.9,2Zm31.4,3.3a4,4,0,0,1-2.4.7,7.78,7.78,0,0,1-5-1.9,5.69,5.69,0,0,1-2.1-5.1c0-.7.1-1.4.1-2.1a8.6,8.6,0,0,0,.1-1.6,1.48,1.48,0,0,0-.1-.7,2.19,2.19,0,0,0-.3-.5.69.69,0,0,0-1.2.3c-.1.3-.2.7-.3,1.1-.3,1.3-.6,2.5-.8,3.8a16.66,16.66,0,0,1-.8,3,8.17,8.17,0,0,1-1.2,2,2.77,2.77,0,0,1-2.4,1.1,5.35,5.35,0,0,1-4.7-2.2,9.62,9.62,0,0,1-1.6-3.2,29.71,29.71,0,0,1-.8-4.3,16.21,16.21,0,0,1,0-4.4,7.72,7.72,0,0,1,.2-1.5,7.59,7.59,0,0,1,2.7-4.3,5.17,5.17,0,0,1,3.2-1.1h.5a7.51,7.51,0,0,1,6.3,3c.1.1.1.2.2.3.4.6.6.6,1.2.3.9-.5,1.8-1,2.7-1.4a7.52,7.52,0,0,1,3.6-.5,5.07,5.07,0,0,1,3.3,1.5,10.55,10.55,0,0,1,2.3,3.6,15,15,0,0,1,1.1,4.4,11,11,0,0,1-1.4,7.1A7.49,7.49,0,0,1,222.85,38.4Zm32.6-22.7a32.72,32.72,0,0,1-.4,5.4,36.84,36.84,0,0,1-1.7,7.3l-1.2,3c0,.1-.1.2-.1.3-.1.4,0,.6.3.7a3.92,3.92,0,0,1,1.4.8,3,3,0,0,1,1,2.1,5.76,5.76,0,0,1-1.2,3.8,4.35,4.35,0,0,1-.6.7,3.61,3.61,0,0,1-3.3,1,6,6,0,0,1-1.9-.6,7.46,7.46,0,0,1-1.2-.7,1.06,1.06,0,0,0-1.2-.1,13.89,13.89,0,0,1-13-1.1,10.92,10.92,0,0,1-2.4-2.4c-.2-.2-.3-.5-.5-.7a5.86,5.86,0,0,1-1.1-3.2,8.6,8.6,0,0,1-.1-1.6,12.51,12.51,0,0,1,3.5-8.4,9.57,9.57,0,0,1,4.8-2.7,11.4,11.4,0,0,1,2.6-.2,6.7,6.7,0,0,1,3.1.7,10.93,10.93,0,0,1,1.5.8A.79.79,0,0,0,245,20c.2-1.5.4-2.9.6-4.4a32.9,32.9,0,0,1,.9-4.3,6.71,6.71,0,0,1,1-2.3,3.31,3.31,0,0,1,1.9-1.4,3.87,3.87,0,0,1,2.6.3,6.27,6.27,0,0,1,2.8,3,10.87,10.87,0,0,1,.8,3.9A2.77,2.77,0,0,1,255.45,15.7Z"/><path d="M241.45,27.4a2.18,2.18,0,0,0-1.4,3.1,1.89,1.89,0,0,0,2.7.7,2.74,2.74,0,0,0,1-1.8v-.3A1.85,1.85,0,0,0,241.45,27.4Z"/></g></g></svg>