<?xml version="1.0" encoding="utf-8"?>
<!-- Generator: Adobe Illustrator 23.0.3, SVG Export Plug-In . SVG Version: 6.00 Build 0)  -->
<svg version="1.1" id="Layer_1" xmlns="http://www.w3.org/2000/svg" xmlns:xlink="http://www.w3.org/1999/xlink" x="0px" y="0px"
	 viewBox="0 0 1920 1080" style="enable-background:new 0 0 1920 1080;" xml:space="preserve">
<style type="text/css">
	.st0{fill:none;stroke:#FFFFFF;stroke-width:9;stroke-linecap:round;stroke-linejoin:round;stroke-dasharray:0.9981,13.9733;}
	.st1{fill:none;stroke:#FFFFFF;stroke-width:11.7253;stroke-linecap:round;stroke-linejoin:round;stroke-dasharray:1.3004,18.2059;}
	.st2{fill:#FFFFFF;}
	
		.st3{fill:none;stroke:#FFFFFF;stroke-width:11.7253;stroke-linecap:round;stroke-linejoin:round;stroke-miterlimit:10;stroke-dasharray:1.3028,18.2393;}
</style>
<g>
	<path class="st0" d="M451.42,408.28c-14.4,1.05-25.95-5.19-36.23-14.38c-1.93-1.73-3.13-1.74-5.13-0.47
		c-7.03,4.47-14.87,6.45-23.1,6.81c-11.03,0.48-21.97,0.2-32.2-4.82c-11.39-5.59-22.07-12.59-26.6-24.74
		c-2.49-6.69-4.52-6.7-10.77-5.75c-18.08,2.76-31.68-4.81-39.98-21.15c-4.32-8.5-3.29-17.81-0.33-26.23
		c4.83-13.7,14.26-23.25,29.05-26.65c3.34-0.77,6.75-1.12,9.89-0.49c5.55,1.12,7.7-1.98,9.54-6.09
		c4.06-9.08,10.82-15.88,19.14-20.85c12.64-7.54,26.54-9.5,40.74-5.93c8.54,2.14,16.18,6.75,22.75,12.76
		c1.87,1.71,3.19,1.95,5.62,0.67c15.92-8.41,32.53-8.96,49.53-3.69c11.16,3.46,21.08,8.88,27.7,18.89
		c2.24,3.39,4.72,6.73,5.76,10.84c0.84,3.3,2.93,4.27,6.39,3.31c11.28-3.12,22.15-1.05,31.37,5.5
		c10.22,7.26,15.38,17.71,14.18,30.77c-1.62,17.56-14.51,34.13-32.02,37.21c-3.34,0.59-6.65,0.57-9.95,0.38
		c-3.82-0.22-6.18,1.06-7.89,4.59c-7.41,15.31-19.95,24.34-36.03,28.93C459.07,408.79,455.22,407.97,451.42,408.28z"/>
</g>
<g>
	<path class="st1" d="M1517,732.44c-18.76,1.37-33.81-6.77-47.2-18.73c-2.52-2.25-4.08-2.27-6.69-0.62
		c-9.16,5.82-19.37,8.41-30.09,8.87c-14.36,0.62-28.62,0.27-41.96-6.27c-14.83-7.28-28.75-16.4-34.66-32.23
		c-3.25-8.71-5.89-8.73-14.03-7.49c-23.56,3.59-41.27-6.26-52.08-27.55c-5.62-11.08-4.29-23.2-0.43-34.17
		c6.29-17.85,18.57-30.29,37.84-34.72c4.35-1,8.8-1.46,12.88-0.64c7.23,1.46,10.04-2.58,12.43-7.93
		c5.29-11.83,14.09-20.69,24.94-27.17c16.46-9.83,34.57-12.38,53.08-7.73c11.12,2.79,21.07,8.79,29.64,16.62
		c2.44,2.23,4.15,2.54,7.32,0.87c20.74-10.96,42.39-11.67,64.52-4.8c14.55,4.51,27.46,11.57,36.09,24.61
		c2.92,4.41,6.15,8.76,7.51,14.12c1.09,4.3,3.81,5.56,8.32,4.31c14.69-4.07,28.85-1.37,40.87,7.17
		c13.32,9.46,20.04,23.07,18.47,40.09c-2.11,22.88-18.9,44.46-41.72,48.48c-4.35,0.77-8.67,0.74-12.96,0.5
		c-4.98-0.28-8.05,1.38-10.28,5.98c-9.65,19.94-26,31.72-46.94,37.68C1526.96,733.11,1521.94,732.05,1517,732.44z"/>
</g>
<path class="st2" d="M297.92,833.33c-20.54,1.5-37.03-7.41-51.69-20.51c-2.76-2.47-4.47-2.49-7.32-0.68
	c-10.03,6.37-21.21,9.21-32.96,9.71c-15.73,0.68-31.35,0.29-45.95-6.87c-16.25-7.97-31.49-17.96-37.95-35.3
	c-3.56-9.54-6.45-9.56-15.37-8.2c-25.8,3.94-45.2-6.86-57.03-30.17c-6.16-12.13-4.7-25.4-0.47-37.42
	c6.88-19.55,20.34-33.17,41.44-38.02c4.76-1.1,9.64-1.6,14.11-0.7c7.92,1.6,10.99-2.82,13.61-8.69
	c5.8-12.95,15.44-22.66,27.31-29.75c18.03-10.76,37.86-13.55,58.13-8.47c12.18,3.06,23.08,9.63,32.46,18.2
	c2.67,2.44,4.55,2.79,8.02,0.95c22.71-12,46.42-12.78,70.66-5.26c15.93,4.94,30.07,12.67,39.52,26.95c3.19,4.83,6.73,9.6,8.22,15.46
	c1.2,4.71,4.18,6.09,9.11,4.72c16.09-4.45,31.6-1.5,44.76,7.85c14.58,10.36,21.94,25.26,20.22,43.9
	c-2.31,25.06-20.7,48.69-45.69,53.09c-4.76,0.84-9.49,0.81-14.19,0.55c-5.46-0.31-8.82,1.51-11.25,6.55
	c-10.57,21.84-28.47,34.73-51.41,41.27C308.83,834.07,303.33,832.9,297.92,833.33z"/>
<path class="st2" d="M1593.29,430.59c-3.39,0.41-7.78,0.63-12.87,0.08c-6.8-0.74-11.95-2.57-14.34-3.47
	c-9.22-3.46-16.69-9.23-23.39-16.6c-2.51-2.76-4.41-6.25-6.34-9.59c-1.75-3.02-3.2-2.8-5.94-1.09
	c-12.67,7.86-26.17,12.48-40.64,8.05c-6.19-1.89-13.12-2.22-18.23-7.81c-1.48-1.62-3.1-0.79-4.56,1.47
	c-9.11,14.12-21.51,23.46-36.94,24.91c-17.27,1.62-33.64-2.4-45.94-18.08c-3.18-4.05-6.5-7.84-8.46-12.92
	c-0.89-2.3-3-2.91-5.35-2.09c-11.33,3.98-22.72,3.24-33.74-0.93c-11.32-4.29-20.59-11.99-26.7-23.83c-8.4-16.26-6.4-38.55,6.05-53.1
	c8.21-9.6,18.53-14.09,29.59-17.17c3.42-0.95,4.93-1.11,4.16-6.62c-2.85-20.32,5.19-35.39,19.66-47.52
	c15.02-12.59,32.15-12.76,49.59-12.08c0.19,0.01,0.38-0.01,0.57,0.03c3.94,0.79,8.26,5.05,11.7,1.41c2.75-2.91,3.63-8.03,5.29-12.2
	c7.38-18.63,19.72-31.27,36.56-39.02c15.6-7.18,31.43-8.2,47.46-3.14c17.08,5.39,31.35,15.67,41.86,32.08
	c5.09,7.94,8.04,16.79,10.59,25.93c1.15,4.1,2.3,6.38,7.05,3.68c24.09-13.67,55.8-6.14,72.49,19.2
	c12.48,18.96,12.36,47.66-2.36,66.43c-3.8,4.84-7.93,8.86-12.48,12.6c-2.09,1.72-4.48,3.52-2.36,7.2c5.53,9.58,7.16,20.3,6.68,31.41
	c-0.13,3.1-0.44,4.53-1.07,7.47c-1.27,5.91-4.73,15.35-11.97,24.45c-1.94,2.44-6.71,8.04-14.32,12.89
	C1606.07,428.05,1598.16,429.88,1593.29,430.59z"/>
<path class="st3" d="M1802.29,364.59c-3.39,0.41-7.78,0.63-12.87,0.08c-6.8-0.74-11.95-2.57-14.34-3.47
	c-9.22-3.46-16.69-9.23-23.39-16.6c-2.51-2.76-4.41-6.25-6.34-9.59c-1.75-3.02-3.2-2.8-5.94-1.09
	c-12.67,7.86-26.17,12.48-40.64,8.05c-6.19-1.89-13.12-2.22-18.23-7.81c-1.48-1.62-3.1-0.79-4.56,1.47
	c-9.11,14.12-21.51,23.46-36.94,24.91c-17.27,1.62-33.64-2.4-45.94-18.08c-3.18-4.05-6.5-7.84-8.46-12.92
	c-0.89-2.3-3-2.91-5.35-2.09c-11.33,3.98-22.72,3.24-33.74-0.93c-11.32-4.29-20.59-11.99-26.7-23.83c-8.4-16.26-6.4-38.55,6.05-53.1
	c8.21-9.6,18.53-14.09,29.59-17.17c3.42-0.95,4.93-1.11,4.16-6.62c-2.85-20.32,5.19-35.39,19.66-47.52
	c15.02-12.59,32.15-12.76,49.59-12.08c0.19,0.01,0.38-0.01,0.57,0.03c3.94,0.79,8.26,5.05,11.7,1.41c2.75-2.91,3.63-8.03,5.29-12.2
	c7.38-18.63,19.72-31.27,36.56-39.02c15.6-7.18,31.43-8.2,47.46-3.14c17.08,5.39,31.35,15.67,41.86,32.08
	c5.09,7.94,8.04,16.79,10.59,25.93c1.15,4.1,2.3,6.38,7.05,3.68c24.09-13.67,55.8-6.14,72.49,19.2
	c12.48,18.96,12.36,47.66-2.36,66.43c-3.8,4.84-7.93,8.86-12.48,12.6c-2.09,1.72-4.48,3.52-2.36,7.2c5.53,9.58,7.16,20.3,6.68,31.41
	c-0.13,3.1-0.44,4.53-1.07,7.47c-1.27,5.91-4.73,15.35-11.97,24.45c-1.94,2.44-6.71,8.04-14.32,12.89
	C1815.07,362.05,1807.16,363.88,1802.29,364.59z"/>
<path class="st2" d="M94.53,181.29c13.2-25.42,39.75-42.8,70.37-42.8c11.74,0,22.87,2.57,32.89,7.15
	c19.01-22.99,47.75-37.64,79.91-37.64c43.28,0,80.36,26.54,95.87,64.22c26.56,2.24,47.42,24.49,47.42,51.63
	c0,28.62-23.2,51.83-51.83,51.83c-3.18,0-6.28-0.3-9.31-0.85c-18.95,24.61-48.69,40.48-82.16,40.48
	c-28.13,0-53.63-11.22-72.31-29.42c-11.85,7.06-25.7,11.13-40.5,11.13c-17.91,0-34.42-5.94-47.69-15.96
	c-5.99,2.42-12.53,3.76-19.38,3.76C69.2,284.83,46,261.63,46,233C46,205.49,67.44,182.99,94.53,181.29z"/>
<path class="st2" d="M1715.37,899.94c-7.52-14.47-22.63-24.37-40.07-24.37c-6.68,0-13.02,1.46-18.73,4.07
	c-10.82-13.09-27.19-21.43-45.5-21.43c-24.64,0-45.75,15.11-54.58,36.56c-15.12,1.28-27,13.94-27,29.39
	c0,16.3,13.21,29.51,29.51,29.51c1.81,0,3.58-0.17,5.3-0.48c10.79,14.01,27.72,23.05,46.78,23.05c16.02,0,30.53-6.39,41.17-16.75
	c6.75,4.02,14.63,6.33,23.05,6.33c10.19,0,19.6-3.38,27.15-9.08c3.41,1.38,7.13,2.14,11.03,2.14c16.3,0,29.51-13.21,29.51-29.51
	C1743,913.72,1730.79,900.91,1715.37,899.94z"/>
</svg>
