<svg xmlns="http://www.w3.org/2000/svg" viewBox="0 0 294.33 53.86"><title>elliot-and-ko_1</title><g id="Layer_2" data-name="Layer 2"><g id="Layer_1-2" data-name="Layer 1"><path d="M19.87,62.93A16.88,16.88,0,0,1,7.06,57.6,18.81,18.81,0,0,1,2,44.14,19.16,19.16,0,0,1,6.91,30.71a16.21,16.21,0,0,1,12.53-5.37q7.85,0,12.49,5.08t4.65,14.22l-.08.72H8.78a11.49,11.49,0,0,0,3.46,8.35,11.07,11.07,0,0,0,7.92,3.17q6.33,0,9.94-6.34L36,53.42a17.55,17.55,0,0,1-6.59,7A18.23,18.23,0,0,1,19.87,62.93Zm-10.58-23H29.52a8.79,8.79,0,0,0-3-6.09,10.49,10.49,0,0,0-7.23-2.41,9.6,9.6,0,0,0-6.45,2.31A11,11,0,0,0,9.29,39.89Z" transform="translate(-2.02 -9.07)"/><path d="M49.25,10.22V61.78H42.62V10.22Z" transform="translate(-2.02 -9.07)"/><path d="M63.94,10.22V61.78H57.31V10.22Z" transform="translate(-2.02 -9.07)"/><path d="M80.57,14.33a4.68,4.68,0,1,1-9.36,0,4.68,4.68,0,1,1,9.36,0ZM79.2,26.5V61.78H72.57V26.5Z" transform="translate(-2.02 -9.07)"/><path d="M85.46,44.14a18.71,18.71,0,0,1,5.11-13.47,17.44,17.44,0,0,1,13-5.33,17.21,17.21,0,0,1,13,5.33,18.56,18.56,0,0,1,5.18,13.47,18.37,18.37,0,0,1-5.18,13.46,17.21,17.21,0,0,1-13,5.33,17.44,17.44,0,0,1-13-5.33A18.69,18.69,0,0,1,85.46,44.14Zm6.63,0a12.89,12.89,0,0,0,3.31,9.21,11.3,11.3,0,0,0,16.41,0,12.9,12.9,0,0,0,3.32-9.21A12.82,12.82,0,0,0,111.81,35,11.15,11.15,0,0,0,95.4,35,12.81,12.81,0,0,0,92.09,44.14Z" transform="translate(-2.02 -9.07)"/><path d="M140.69,62.35a10.11,10.11,0,0,1-7.17-2.66,9.88,9.88,0,0,1-2.91-7.42V32.54h-6.2v-6h6.2V15.7h6.62V26.5h8.64v6h-8.64V50.11q0,3.53,1.37,4.79a4.44,4.44,0,0,0,3.09,1.26,6.64,6.64,0,0,0,1.55-.18,8.33,8.33,0,0,0,1.41-.47l2.08,5.91A17.83,17.83,0,0,1,140.69,62.35Z" transform="translate(-2.02 -9.07)"/><path d="M201,52.85l4.82,6.33-5,3.75-3.53-4.68a17.49,17.49,0,0,1-11.95,4.68,18.48,18.48,0,0,1-13.32-5.26,17.25,17.25,0,0,1-5.48-13,16.59,16.59,0,0,1,2.42-8.6,19.09,19.09,0,0,1,6.51-6.59q-3.74-4.82-3.74-8.57a11.17,11.17,0,0,1,3.67-8.39,12.35,12.35,0,0,1,8.79-3.49,11.29,11.29,0,0,1,7.12,2.34,13.16,13.16,0,0,1,4.39,6.37l-5.68,3q-2-5.4-5.83-5.4a5.82,5.82,0,0,0-4.15,1.51,5.28,5.28,0,0,0-1.61,4,7.47,7.47,0,0,0,1.65,4.61l17.07,22.32,4.6-7.7L207,43.34Zm-28.37-8.14a11.49,11.49,0,0,0,3.68,8.68,12.63,12.63,0,0,0,9.07,3.49,10.71,10.71,0,0,0,8.28-3.46L179.21,34.34a12.81,12.81,0,0,0-4.79,4.47A10.89,10.89,0,0,0,172.65,44.71Z" transform="translate(-2.02 -9.07)"/><path d="M259.41,61.78h-8l-11-16.64L235,50.47V61.78h-6.62V10.22H235V42L250.27,26.5h8.49v.28L245,40.46l14.4,21Z" transform="translate(-2.02 -9.07)"/><path d="M260.06,44.14a18.67,18.67,0,0,1,5.11-13.47,17.44,17.44,0,0,1,13-5.33,17.21,17.21,0,0,1,13,5.33,18.53,18.53,0,0,1,5.19,13.47,18.34,18.34,0,0,1-5.19,13.46,17.21,17.21,0,0,1-13,5.33,17.44,17.44,0,0,1-13-5.33A18.65,18.65,0,0,1,260.06,44.14Zm6.62,0A12.9,12.9,0,0,0,270,53.35a11.3,11.3,0,0,0,16.41,0,12.89,12.89,0,0,0,3.31-9.21A12.81,12.81,0,0,0,286.41,35,11.15,11.15,0,0,0,270,35,12.82,12.82,0,0,0,266.68,44.14Z" transform="translate(-2.02 -9.07)"/></g></g></svg>