<svg xmlns="http://www.w3.org/2000/svg" viewBox="0 0 213.53 374.38"><title>rose-city-games</title><g id="Layer_2" data-name="Layer 2"><g id="Layer_1_copy" data-name="Layer 1 copy"><path d="M189.24,363.15c-.63,0-.63-.17-1.27-.17s-.63.1-1.27.1h-2.54s0-.12,0-.12c-.66,0-.66.05-1.33.05s-.66-.05-1.33-.05-.66.22-1.33.22-.66-.2-1.33-.2-.67.06-1.33.06-.67.1-1.33.1-.67-.09-1.34-.09-.67,0-1.33,0-.67-.06-1.34-.06a2.83,2.83,0,0,1-1.26-.23,2.86,2.86,0,0,1-1.12-.69,2.55,2.55,0,0,1-.46-2.46,3.66,3.66,0,0,1,2.73-2.27c.67,0,.67,0,1.35,0s.67,0,1.35,0,.67.16,1.35.16.67-.18,1.35-.18.67,0,1.35,0,.67.13,1.35.13.67-.09,1.35-.09.67.07,1.35.07.67,0,1.35,0,.67,0,1.35,0h1.35c.68,0,.68.1,1.36.1h1.35c.67,0,.67-.1,1.35-.1h1.36c.68,0,.68,0,1.36,0a.56.56,0,0,0,.62-.57c0-.72.1-.72.1-1.43a.71.71,0,0,0-.72-.66l-1.34,0c-.67,0-.67,0-1.34,0s-.67,0-1.34,0-.67,0-1.34,0-.67,0-1.33,0-.67,0-1.34,0-.67.1-1.34.1H183c-.67,0-.67,0-1.34,0s-.67-.11-1.33-.11-.67.07-1.34.07-.67-.09-1.35-.09-.67.13-1.34.13-.67.05-1.34.05-.67,0-1.34,0-.68-.11-1.35-.11a6.27,6.27,0,0,0-1.36.25,16,16,0,0,0-2.52,1.1,5.34,5.34,0,0,0-.84,1.1,4.88,4.88,0,0,0-.62,1.2,5.14,5.14,0,0,0-.33,1.31,5.42,5.42,0,0,0,0,1.33,4.49,4.49,0,0,0,2.9,4.31,5.57,5.57,0,0,0,1.27.49,5.44,5.44,0,0,0,1.35.11c.62,0,.62.13,1.25.13s.62-.13,1.25-.13.63,0,1.26,0,.63.05,1.25.06a.86.86,0,0,1,0,.16c.68,0,.68-.13,1.35-.13s.68.06,1.35.06.68-.07,1.35-.07.68,0,1.35,0,.68,0,1.35,0h1.36c.67,0,.67-.06,1.35-.06s.68.13,1.35.13.68-.13,1.36-.13a2.92,2.92,0,0,1,1.39.47,3,3,0,0,1,1.11,1,2.85,2.85,0,0,1,.21,1.44c0,.06.11.06.11.13a2.72,2.72,0,0,1-.45,1.36,2.79,2.79,0,0,1-1,1,2.75,2.75,0,0,1-1.36.41c-.68,0-.68.13-1.35.13s-.68-.2-1.36-.2-.68,0-1.35,0-.68,0-1.36,0h-1.35c-.68,0-.68.13-1.36.13s-.67-.05-1.35-.05-.68.05-1.35.05-.68-.07-1.36-.07-.68-.08-1.35-.08-.68.08-1.36.08-.68.12-1.36.12-.67-.06-1.35-.06-.68-.12-1.36-.12-.68,0-1.36,0h-1.36a.78.78,0,0,0-.73.72c0,.72.13.72.13,1.43a.65.65,0,0,0,.6.71h1.35c.68,0,.68-.06,1.36-.06s.67-.11,1.35-.11H173c.68,0,.68,0,1.36,0s.68.1,1.35.1.68.05,1.36.05.67-.19,1.35-.19.68.1,1.36.1h1.35c.68,0,.68-.05,1.36-.05s.67.14,1.35.14l1.36,0c.68,0,.68-.16,1.36-.16s.68,0,1.36,0,.68.07,1.36.07a5.93,5.93,0,0,0,1.47-.1,5.79,5.79,0,0,0,1.3-.69,4.18,4.18,0,0,0,2.14-1.95,5.37,5.37,0,0,0,.44-1.39,5.23,5.23,0,0,0,.15-1.43c0-.07,0-.07,0-.13a5.69,5.69,0,0,0-.1-1.44,5.58,5.58,0,0,0-.53-1.36,5.71,5.71,0,0,0-.89-1.18,6,6,0,0,0-1.23-.78,5.82,5.82,0,0,0-1.31-.62A5.36,5.36,0,0,0,189.24,363.15Z"/><path d="M42.88,363c-.69,0-.69.1-1.39.1s-.7-.15-1.4-.15-.7.1-1.4.1-.7-.1-1.4-.1-.7,0-1.4,0h-1.4c-.71,0-.71.08-1.41.08h-1.4c-.71,0-.71,0-1.41,0a.79.79,0,0,0-.75.71c0,.72.07.72.07,1.44a.77.77,0,0,0,.68.76c.7,0,.7-.17,1.4-.17s.7.08,1.4.08h1.4c.7,0,.7,0,1.4,0h2.8c.7,0,.7,0,1.4,0s.71-.16,1.41-.16.7.06,1.4.06a2.06,2.06,0,0,1,1.78,1.74c0,.58-.06.58-.06,1.16s0,.59,0,1.17a2.15,2.15,0,0,1-1.76,1.7c-.94,0-.94-.06-1.89-.06-.68,0-.68-.07-1.37-.07s-.69.18-1.38.18-.68-.13-1.37-.13-.69-.07-1.38-.07-.69.22-1.38.22-.68,0-1.37,0-.69,0-1.38,0H30c-.69,0-.69-.15-1.39-.15s-.56,0-1.12,0-.56,0-1.12,0H25.22a4.52,4.52,0,0,1-1.33-.08,4.32,4.32,0,0,1-1.14-.7,4.06,4.06,0,0,1-.93-.92,4,4,0,0,1-.73-1.13,4.47,4.47,0,0,1-.24-1.33c0-.69.21-.69.21-1.38s-.21-.69-.21-1.39.22-.69.22-1.38-.05-.7-.05-1.39a4.12,4.12,0,0,1,.13-1.32,4.21,4.21,0,0,1,.7-1.12,4.14,4.14,0,0,1,.86-1,3.73,3.73,0,0,1,2.51-.72H28c.69,0,.69-.18,1.38-.18s.69.17,1.39.17.69-.14,1.38-.14.69,0,1.38,0,.69.18,1.38.18.69-.19,1.38-.19.69.05,1.39.05.69,0,1.38,0h2.77c.69,0,.69,0,1.39,0s.69-.11,1.39-.11.69.08,1.38.08a.59.59,0,0,0,.61-.63c0-.72.1-.72.1-1.44a.74.74,0,0,0-.71-.7c-.69,0-.69.11-1.38.11s-.69,0-1.38,0-.69,0-1.38,0-.69,0-1.39,0-.69,0-1.38,0-.69,0-1.38,0-.69-.16-1.38-.16-.69.15-1.38.15-.7,0-1.39,0-.69-.09-1.38-.09-.69,0-1.39,0-.69,0-1.38,0-.69.21-1.39.21-.69-.2-1.39-.2-.69,0-1.39,0a6.85,6.85,0,0,0-1.35.26,7.43,7.43,0,0,0-1.36.25,7.47,7.47,0,0,0-1.16.76,8,8,0,0,0-1.07.85,7.93,7.93,0,0,0-.8,1.1,6.86,6.86,0,0,0-.68,1.17,7.54,7.54,0,0,0-.58,1.26,7.13,7.13,0,0,0-.16,1.39c0,.69.1.69.1,1.38s.08.69.08,1.39-.11.69-.11,1.38.11.69.11,1.39a6.75,6.75,0,0,0,.11,1.36,6.33,6.33,0,0,0,.34,1.33,6.77,6.77,0,0,0,.78,1.14,7.62,7.62,0,0,0,.7,1.21,7.44,7.44,0,0,0,1.2.71,7.91,7.91,0,0,0,1.13.79,7.66,7.66,0,0,0,1.36.3,6.84,6.84,0,0,0,1.37.14h1.12c.56,0,.56.12,1.12.12s.56-.05,1.12-.05.69.05,1.38.05.69-.22,1.37-.22.69.2,1.38.2.69-.06,1.38-.06.68-.11,1.37-.11.69.1,1.38.1.69,0,1.38,0,.69.07,1.38.07.69-.05,1.38-.05c.95,0,.95-.12,1.89-.12a4.41,4.41,0,0,0,1.37-.2,4.33,4.33,0,0,0,1.28-.56,6.26,6.26,0,0,0,1.67-2.23,4.67,4.67,0,0,0,0-1.4c0-.58,0-.58,0-1.17s0-.58,0-1.16a4.27,4.27,0,0,0-.06-1.39,4.41,4.41,0,0,0-.78-1.15,4.33,4.33,0,0,0-1-1,3.65,3.65,0,0,0-2.56-1Z"/><path d="M138.06,357.25c.69,0,.69.13,1.37.13h1.37c.69,0,.69.08,1.37.08s.69,0,1.38,0,.68,0,1.37,0h1.37c.68,0,.68,0,1.36,0s.69,0,1.38,0,.68,0,1.37,0h2.75c.68,0,.68-.14,1.37-.14s.69.12,1.37.12.69-.07,1.38-.07.69,0,1.38,0a.73.73,0,0,0,.75-.64c0-.72-.16-.72-.16-1.43a.54.54,0,0,0-.59-.59c-.68,0-.68-.08-1.37-.08s-.68.1-1.36.1-.68-.17-1.37-.17-.68.12-1.36.12-.69-.05-1.37-.05h-1.36c-.68,0-.68.05-1.36.05s-.69-.12-1.37-.12-.68.09-1.37.09-.68-.14-1.36-.14h-1.37c-.69,0-.69.08-1.37.08h-1.37c-.68,0-.68-.06-1.37-.06s-.69.07-1.37.07a5.64,5.64,0,0,0-1.36.18,6.1,6.1,0,0,0-1.3.46,6.77,6.77,0,0,0-1.18.72,6.4,6.4,0,0,0-.9,1,5,5,0,0,0-.61,1.22,5.15,5.15,0,0,0-.54,1.26,5.67,5.67,0,0,0,.1,1.24,5.45,5.45,0,0,0,.19,1.21,5.57,5.57,0,0,0,.55,1.09,5.34,5.34,0,0,0,.78.93.66.66,0,0,1-.13.87,5.92,5.92,0,0,0-.68,1,5.58,5.58,0,0,0-.46,1.13,5.26,5.26,0,0,0-.17,1.2,5.6,5.6,0,0,0-.17,1.22,5,5,0,0,0,.39,1.33,5.79,5.79,0,0,0,.7,1.2,7,7,0,0,0,1.09.83,6.78,6.78,0,0,0,1,.91,6.09,6.09,0,0,0,1.34.32,5.61,5.61,0,0,0,1.33.32c.68,0,.68,0,1.36,0h1.37c.68,0,.68,0,1.37,0s.68,0,1.36,0,.68-.11,1.37-.11.68.11,1.36.11.68,0,1.36,0,.69-.13,1.37-.13.68,0,1.36,0,.69.12,1.37.12.69-.13,1.37-.13.68.07,1.37.07.68.11,1.37.11.68-.18,1.37-.18.68.11,1.37.11a.64.64,0,0,0,.65-.66c0-.71-.11-.71-.11-1.43,0-.36-.17-.78-.54-.78-.69,0-.69.22-1.37.22s-.69-.17-1.37-.17h-1.37c-.69,0-.69-.07-1.38-.07s-.68.11-1.37.11-.68-.08-1.37-.08-.68.17-1.36.17-.69,0-1.38,0-.68-.18-1.37-.18h-1.37c-.69,0-.69,0-1.38,0h-1.37c-.69,0-.69,0-1.37,0s-.69.05-1.38.05-.69,0-1.38,0a3,3,0,0,1-1.25-.27,2.9,2.9,0,0,1-1.05-.74,2.56,2.56,0,0,1-.53-1.17,2.87,2.87,0,0,1,0-1.23,2.7,2.7,0,0,1,.59-1.09,2.91,2.91,0,0,1,.93-.85,3.09,3.09,0,0,1,1.25-.33c.69,0,.69.1,1.38.1s.68,0,1.37,0,.69-.06,1.38-.06.69-.07,1.38-.07.69,0,1.38,0,.69.13,1.38.13.69.07,1.37.07H149c.69,0,.69-.08,1.38-.08s.69,0,1.38,0,.69,0,1.39,0,.69.12,1.38.12h1.38c.69,0,.69,0,1.38,0s.7-.09,1.39-.1c.37,0,.78-.26.78-.62,0-.72-.1-.72-.1-1.44a.79.79,0,0,0-.68-.78c-.69,0-.69,0-1.38,0h-1.38c-.69,0-.69.08-1.38.08h-1.38c-.69,0-.69,0-1.38,0s-.68,0-1.37,0-.69.07-1.38.07-.69-.09-1.38-.09-.69.17-1.38.17-.69-.08-1.38-.08h-1.38c-.69,0-.69,0-1.38,0h-2.77c-.69,0-.69,0-1.38,0a3.16,3.16,0,0,1-1.28-.12,3.33,3.33,0,0,1-1-.84,2.93,2.93,0,0,1-.49-1.16,3,3,0,0,1-.14-1.27,2.81,2.81,0,0,1,.64-1.19,3.17,3.17,0,0,1,1-.85A3.4,3.4,0,0,1,138.06,357.25Z"/><path d="M90,373.79c.33-.62.49-.53.82-1.14l.66-1.23c.33-.61.19-.68.52-1.29s.35-.61.68-1.22.49-.53.82-1.14.31-.62.64-1.24.25-.66.58-1.27.41-.57.74-1.18.27-.65.6-1.26.32-.63.65-1.24.26-.66.59-1.27a.72.72,0,0,1,1.23,0c.3.57.36.54.67,1.1s.36.54.66,1.1.28.58.58,1.14.32.56.63,1.13.29.57.6,1.13.25.6.56,1.17.37.53.68,1.09.18.63.48,1.2.45.49.76,1.06.11.67.42,1.24.35.54.66,1.11a2.7,2.7,0,0,0,2.38,1.35v-.05a2.65,2.65,0,0,0,1.37-.29,2.77,2.77,0,0,0,1.05-1c.3-.56.28-.58.58-1.14s.13-.66.43-1.23.44-.49.74-1.06.21-.62.51-1.18.29-.58.59-1.14l.61-1.14c.31-.56.52-.45.83-1s.24-.6.55-1.17.31-.56.62-1.13.22-.61.53-1.18.27-.58.58-1.15a.67.67,0,0,1,1.17.07c.33.61.43.56.76,1.17s.26.65.59,1.26.39.58.72,1.19.25.66.58,1.27.29.64.63,1.25.48.53.81,1.14.24.66.58,1.28.41.57.74,1.18.18.69.52,1.31.36.6.69,1.21.42.57.75,1.19c.12.21.34.46.59.46.82,0,.82-.13,1.64-.13a.61.61,0,0,0,.53-.93c-.32-.58-.33-.58-.64-1.16s-.18-.66-.49-1.24-.43-.52-.75-1.11-.25-.61-.56-1.19-.25-.62-.56-1.2-.31-.59-.62-1.18-.33-.58-.64-1.16-.37-.55-.69-1.13-.29-.6-.6-1.19-.47-.5-.79-1.08-.2-.65-.52-1.23-.37-.56-.68-1.14-.3-.6-.61-1.19-.23-.63-.55-1.21-.39-.55-.7-1.14-.39-.55-.71-1.13a.62.62,0,0,0-1.11,0c-.32.6-.23.64-.56,1.24s-.44.53-.76,1.13-.37.57-.69,1.16-.16.69-.48,1.29-.51.49-.83,1.09-.3.61-.62,1.21-.35.58-.68,1.18-.18.67-.51,1.27-.39.56-.72,1.15-.34.59-.67,1.19-.39.56-.72,1.16-.27.62-.59,1.22-.18.68-.5,1.28-.06,1.23-.74,1.24-.41-.64-.73-1.24-.16-.68-.49-1.28-.3-.6-.63-1.2-.52-.49-.84-1.08-.21-.66-.53-1.26-.22-.65-.54-1.25-.42-.54-.74-1.14-.27-.63-.59-1.23-.38-.57-.7-1.16-.46-.53-.79-1.13-.21-.65-.53-1.25l-.66-1.2c-.32-.6-.26-.63-.58-1.23s-.36-.58-.69-1.18a.73.73,0,0,0-1.25,0c-.31.59-.32.58-.64,1.16s-.36.56-.67,1.15-.28.6-.59,1.19-.28.59-.6,1.18-.32.57-.63,1.15-.33.58-.64,1.17-.2.65-.51,1.23-.43.52-.74,1.11-.26.61-.57,1.2-.34.57-.65,1.16-.41.53-.73,1.11-.17.67-.49,1.25-.32.58-.63,1.17-.39.55-.7,1.13-.23.64-.55,1.22-.47.51-.78,1.1a.68.68,0,0,0,.65,1c.82,0,.82.05,1.64.05C89.74,374.18,89.89,374,90,373.79Z"/><path d="M81.94,373.14c-.4-.54-.37-.56-.78-1.1s-.32-.59-.73-1.13-.38-.56-.79-1.1-.42-.52-.82-1.06-.38-.56-.78-1.09-.58-.41-1-1-.26-.64-.67-1.18-.52-.45-.92-1-.43-.52-.83-1.06-.42-.54-.82-1.08-.26-.65-.66-1.19-.38-.56-.79-1.1-.59-.4-1-.94-.31-.61-.71-1.16-.33-.6-.74-1.14-.46-.5-.87-1.05l-.82-1.08a.77.77,0,0,0-1.16-.05c-.41.54-.23.68-.63,1.22s-.42.53-.82,1.07-.49.48-.89,1-.51.46-.91,1-.27.64-.67,1.18l-.8,1.08c-.4.54-.35.58-.76,1.12s-.56.42-1,1-.43.52-.83,1.06-.31.62-.71,1.16-.49.48-.89,1-.38.56-.78,1.11-.46.49-.86,1-.33.6-.74,1.14-.36.58-.77,1.12-.5.48-.9,1-.37.58-.77,1.12a.76.76,0,0,0,.54,1.18c.53,0,.53-.05,1.06-.05s.52,0,1.05,0,.65-.11,1.31-.11.66,0,1.31,0,.66.22,1.31.22.66-.23,1.32-.23h1.31c.65,0,.65,0,1.31,0h1.31c.66,0,.66.18,1.32.18h1.31c.65,0,.65-.16,1.31-.16s.65,0,1.31,0,.66.17,1.31.17.66,0,1.32,0,.65-.1,1.31-.1.66.1,1.32.1.65-.08,1.31-.08l1.32,0c.66,0,.66-.08,1.32-.08.88,0,.88.1,1.77.1A.65.65,0,0,0,81.94,373.14Zm-6-1.66c-.69,0-.69,0-1.37,0s-.69-.09-1.38-.09-.68,0-1.37,0-.68,0-1.37,0-.69,0-1.37,0-.69.23-1.38.23-.68-.17-1.37-.17-.69.14-1.38.14-.68,0-1.37,0H62.19c-.69,0-.69-.19-1.38-.19s-.69,0-1.38,0-1-.59-.63-1,.51-.48.92-1,.49-.49.9-1,.35-.6.77-1.15.4-.55.82-1.1.47-.5.88-1.05.23-.69.64-1.23.43-.55.84-1.1.5-.49.91-1,.52-.48.93-1,.28-.66.69-1.21a.76.76,0,0,1,1.16,0c.41.55.46.51.87,1.06s.26.66.67,1.21.39.57.8,1.12.52.47.93,1,.33.61.74,1.16.44.53.85,1.08.36.59.77,1.14.49.49.91,1.05.45.52.87,1.07.32.62.74,1.18A.64.64,0,0,1,75.93,371.48Z"/><path d="M31.61,342.7c-.44,0-.88,0-1.32,0s-.89,0-1.33,0-.88-.1-1.32-.16-.9,0-1.34-.07-.86-.24-1.29-.33-.89-.1-1.32-.21-.82-.37-1.24-.5-.89-.12-1.31-.27-.85-.28-1.26-.45-.77-.46-1.17-.64-.88-.22-1.28-.42-.78-.44-1.16-.65-.79-.43-1.17-.66-.75-.47-1.12-.72-.6-.69-1-.95-.74-.49-1.08-.77-.68-.57-1-.86-.65-.6-1-.91-.73-.52-1-.84-.54-.71-.83-1-.57-.68-.85-1-.58-.67-.85-1-.55-.69-.81-1.06-.49-.74-.72-1.11-.5-.74-.72-1.12-.4-.79-.61-1.19-.31-.83-.5-1.23-.43-.77-.6-1.19-.39-.8-.54-1.22-.25-.85-.38-1.27-.21-.86-.32-1.29-.35-.83-.45-1.27-.2-.86-.28-1.3.09-.91,0-1.35-.1-.88-.14-1.32-.22-.87-.24-1.32S0,312,0,311.58s.15-.89.17-1.33,0-.9,0-1.34.06-.89.12-1.33.29-.85.36-1.29,0-.89.13-1.33.32-.83.43-1.26.1-.9.23-1.32.28-.85.43-1.26.44-.78.61-1.19.23-.87.41-1.28.38-.8.58-1.19.52-.73.74-1.12.48-.74.72-1.12.4-.79.65-1.16.39-.81.66-1.16.74-.55,1-.9.44-.78.74-1.11.64-.61,1-.93.6-.66.92-1,.69-.57,1-.86.57-.71.91-1,.77-.46,1.13-.73.76-.45,1.13-.7.65-.64,1-.87.79-.41,1.18-.62.8-.39,1.19-.59.8-.41,1.2-.59.85-.28,1.26-.44.85-.25,1.27-.4.8-.4,1.22-.53.87-.17,1.3-.28.86-.21,1.3-.3.86-.22,1.29-.29.89,0,1.33-.09.87-.24,1.31-.28.89,0,1.33,0l1.33,0c.44,0,.88-.15,1.32-.13s.88.05,1.31.09.88,0,1.32.09l1.3.2c.43.07.85.24,1.28.33s.84.25,1.27.35.83.25,1.25.38.86.2,1.27.34.79.4,1.19.56.8.35,1.2.53.83.29,1.22.48.86.25,1.24.46.71.53,1.09.76.74.45,1.11.69.7.53,1.06.78.67.55,1,.82.76.45,1.1.73.63.61,1,.91.7.54,1,.85a.7.7,0,0,1-.11,1c-.51.48-.49.5-1,1s-.42.58-.93,1.06l-1,.95a.74.74,0,0,1-1-.15c-.32-.32-.76-.5-1.08-.8s-.52-.76-.87-1.05-.69-.56-1.05-.83-.81-.4-1.18-.65-.7-.57-1.08-.79-.83-.36-1.22-.56-.83-.32-1.24-.51-.76-.47-1.18-.63-.82-.36-1.24-.5-.89-.14-1.32-.26-.84-.32-1.27-.42-.88-.12-1.32-.19-.89,0-1.34-.1-.86-.24-1.31-.27-.89.08-1.34.07-.89-.05-1.34,0-.89.07-1.33.11-.89.09-1.34.15-.92-.06-1.36,0-.85.31-1.28.42-.83.34-1.26.48-.85.25-1.27.41-.85.27-1.27.44-.78.42-1.19.61-.9.21-1.29.43-.8.41-1.18.65-.7.57-1.06.83-.7.56-1.05.84-.72.53-1.06.82-.71.55-1,.86-.54.72-.85,1.05-.61.64-.9,1-.76.54-1,.9-.52.74-.77,1.1-.48.76-.72,1.14-.38.82-.6,1.21-.42.79-.61,1.19-.38.81-.56,1.22-.31.83-.46,1.26-.46.78-.59,1.21-.06.92-.17,1.35-.35.84-.44,1.28,0,.91,0,1.36-.16.87-.19,1.32-.21.88-.22,1.32.19.89.2,1.33-.21.9-.18,1.34.1.89.16,1.33.19.87.27,1.31.16.88.26,1.31.19.87.32,1.29.42.8.57,1.22.27.84.44,1.25.41.78.6,1.18.3.84.51,1.23.37.81.6,1.19.42.79.67,1.16.52.72.79,1.07.66.62.94,1,.54.7.85,1,.6.66.92,1,.76.48,1.09.77.58.69.93,1,.65.61,1,.86.86.31,1.23.55.73.5,1.12.71.73.52,1.12.72.84.31,1.24.48.8.38,1.22.54.8.4,1.22.54l1.29.37c.42.11.89.06,1.33.15s.87.13,1.31.2.86.22,1.3.26.89,0,1.34,0,.88,0,1.32,0,.92.15,1.37.13.9-.19,1.35-.24.91-.05,1.36-.12.88-.26,1.32-.35.91-.13,1.35-.24.88-.21,1.31-.35.91-.19,1.33-.36.84-.35,1.26-.54.77-.49,1.18-.7.78-.46,1.17-.69.85-.36,1.23-.6.79-.47,1.16-.74.6-.71,1-1,.81-.46,1.15-.77.57-.72.89-1a.8.8,0,0,1,1-.05c.52.48.38.63.89,1.1s.63.35,1.15.83l1,1a.82.82,0,0,1,.07,1.08c-.3.32-.75.49-1.07.78s-.61.63-.95.92-.68.55-1,.82l-1,.78c-.36.26-.65.61-1,.85s-.85.31-1.22.53-.69.57-1.07.78-.85.26-1.24.46-.76.43-1.17.6-.78.4-1.18.56-.79.41-1.2.55-.89.12-1.31.25-.84.22-1.27.33-.83.26-1.26.35-.84.25-1.28.33-.86.17-1.29.23-.89,0-1.33,0-.87,0-1.31,0S32.05,342.7,31.61,342.7Z"/><path d="M92,289.12c.43,0,.87.06,1.31,0s.86-.16,1.3-.2.89.1,1.32.05.86-.21,1.3-.26.87,0,1.31-.09l1.3-.19c.43-.08.85-.21,1.29-.29s.83-.3,1.26-.39.89,0,1.32-.1.84-.24,1.27-.35.86-.2,1.28-.32l1.26-.39a.71.71,0,0,0,.36-.91c-.22-.66-.17-.68-.39-1.34s-.27-.65-.49-1.31-.16-.69-.38-1.35a.77.77,0,0,0-.88-.5c-.43.13-.83.33-1.26.46s-.83.35-1.26.46-.89.15-1.32.25-.9.08-1.34.17-.87.2-1.3.27l-1.33.21-1.32.18c-.45.06-.88.24-1.32.29s-.9,0-1.34,0l-1.34.09c-.45,0-.89.1-1.33.11s-.9.14-1.34.14H88.59c-.45,0-.9,0-1.34-.06s-.89-.13-1.33-.15-.9-.1-1.33-.13-.92.13-1.36.09-.89-.19-1.32-.24-.9-.09-1.33-.15-.91-.08-1.34-.14-.87-.28-1.29-.35-.9-.18-1.31-.26-.93,0-1.35-.1-.89-.24-1.29-.33-.9-.29-1.28-.39c-.54-.14-.94-.36-1.25-.45a.75.75,0,0,0-.83.55c-.23.66-.36.61-.59,1.27s-.22.67-.45,1.33-.11.7-.34,1.36a.57.57,0,0,0,.42.76l1.26.38c.37.1.77.3,1.24.42s.81.23,1.27.34.83.21,1.28.3.87,0,1.31.13.84.24,1.28.31.87,0,1.32.07.83.3,1.28.36l1.31.14c.43,0,.88-.09,1.33-.05s.85.24,1.3.27.87.12,1.32.15.74.2.74.55c0,.66-.16.66-.16,1.33s0,.67,0,1.33.18.67.18,1.34-.13.66-.13,1.33.12.67.12,1.34,0,.67,0,1.34-.13.67-.13,1.34.13.67.13,1.33-.17.67-.17,1.34,0,.67,0,1.34v1.33c0,.67,0,.67,0,1.34s.2.67.2,1.34-.15.67-.15,1.34-.06.67-.06,1.34.06.67.06,1.34,0,.67,0,1.34-.11.67-.11,1.34.26.67.26,1.34-.16.67-.16,1.34-.06.67-.06,1.34.18.67.18,1.34,0,.67,0,1.34,0,.67,0,1.34-.14.67-.14,1.34.18.67.18,1.34,0,.67,0,1.34.06.67.06,1.34,0,.67,0,1.34-.25.67-.25,1.34.09.67.09,1.35,0,.67,0,1.34,0,.67,0,1.34.2.68.2,1.35,0,.67,0,1.35a.85.85,0,0,1-.8.72c-.65,0-.65-.06-1.3-.06s-.65-.06-1.3-.06-.65,0-1.3,0H80c-.65,0-.65.06-1.3.06s-.65,0-1.31,0-.65.05-1.3.05-.65.09-1.3.09-.65-.2-1.31-.2-.65,0-1.3,0-.66.12-1.31.12a.66.66,0,0,0-.71.61c0,.7.11.7.11,1.39s-.15.7-.15,1.4,0,.7,0,1.4a.8.8,0,0,0,.8.67c.68,0,.68.11,1.36.11s.68-.24,1.36-.24.69.23,1.37.23.68-.07,1.37-.07H79c.68,0,.68-.1,1.36-.1s.68.06,1.37.06.68-.12,1.36-.12.69.05,1.37.05.68,0,1.37,0,.68,0,1.36,0,.69,0,1.37,0,.69.17,1.37.17.68,0,1.37,0,.68-.13,1.36-.13.69,0,1.37,0,.68.15,1.36.15.69-.22,1.37-.22.69.05,1.37.05.69.18,1.37.18.69-.06,1.37-.06h1.37c.69,0,.69.07,1.37.07s.69-.14,1.38-.14.68.09,1.37.09c.37,0,.56-.37.56-.73,0-.7.07-.7.07-1.4s0-.7,0-1.39,0-.7,0-1.4a.64.64,0,0,0-.62-.68c-.65,0-.65.14-1.3.14s-.65-.17-1.3-.17-.65.06-1.3.06-.65.05-1.3.05-.65-.14-1.3-.14H98.56c-.65,0-.65,0-1.3,0H96c-.65,0-.65.06-1.31.06l-1.3,0c-.66,0-.66.12-1.31.12a.69.69,0,0,1-.64-.71c0-.67-.1-.67-.1-1.33s.15-.67.15-1.34-.15-.66-.15-1.33,0-.67,0-1.33.13-.67.13-1.34-.17-.67-.17-1.34,0-.67,0-1.33,0-.67,0-1.34V324.7c0-.67.23-.67.23-1.34s0-.67,0-1.33,0-.67,0-1.34,0-.67,0-1.34-.13-.67-.13-1.34.1-.67.1-1.33,0-.67,0-1.34,0-.67,0-1.34,0-.67,0-1.34v-1.34c0-.66,0-.66,0-1.33s0-.67,0-1.34.09-.67.09-1.34-.08-.67-.08-1.34-.07-.67-.07-1.34,0-.67,0-1.34,0-.67,0-1.34-.13-.67-.13-1.34,0-.67,0-1.34.24-.67.24-1.34v-1.34c0-.67-.16-.67-.16-1.34s-.09-.67-.09-1.34.15-.67.15-1.34-.08-.68-.08-1.35,0-.67,0-1.35A.81.81,0,0,1,92,289.12Z"/><path d="M207.83,281c0,.7.13.7.13,1.4s-.11.7-.11,1.4v1.39c0,.7.13.7.13,1.4s0,.7,0,1.4-.2.7-.2,1.4.21.7.21,1.4-.22.7-.22,1.4,0,.7,0,1.4.09.7.09,1.4-.11.71-.11,1.41a11.54,11.54,0,0,1,0,1.31c0,.44-.12.87-.2,1.3s-.27.84-.39,1.25-.27.83-.44,1.24a12.63,12.63,0,0,1-.57,1.17,12.13,12.13,0,0,1-.53,1.22,11.89,11.89,0,0,1-.93.95c-.28.33-.47.76-.78,1.06s-.67.59-1,.86-.79.39-1.16.64a11.57,11.57,0,0,1-1,.82c-.39.21-.81.35-1.21.52s-.84.26-1.26.39a10.69,10.69,0,0,1-1.27.31c-.43.08-.86.15-1.3.19a11.21,11.21,0,0,1-1.31.1c-.66,0-.66.1-1.32.1s-.67-.08-1.33-.08-.66,0-1.33,0-.66-.1-1.32-.1h-1.33c-.67,0-.67.11-1.33.11s-.67,0-1.33,0-.67,0-1.33,0c-.45,0-.89-.06-1.33-.1s-.87-.14-1.3-.23a11.4,11.4,0,0,1-1.29-.28,10.82,10.82,0,0,1-1.18-.59,11,11,0,0,1-1.26-.42,12.91,12.91,0,0,1-1.11-.7,11.64,11.64,0,0,1-1-.85c-.34-.27-.65-.58-1-.88a11.5,11.5,0,0,1-.87-1c-.28-.33-.72-.56-1-.92a13.26,13.26,0,0,1-.51-1.23c-.21-.39-.41-.77-.58-1.17s-.44-.77-.57-1.19a11.46,11.46,0,0,1-.18-1.31c-.09-.43-.28-.84-.33-1.28s-.05-.88-.05-1.32c0-.7-.08-.7-.08-1.4s0-.7,0-1.4.2-.69.2-1.39,0-.7,0-1.4-.11-.7-.11-1.4-.07-.7-.07-1.4.11-.7.11-1.4-.11-.7-.11-1.4,0-.7,0-1.4.07-.7.07-1.4-.15-.71-.15-1.41c0-.36-.18-.78-.55-.78-.7,0-.7.2-1.4.2s-.71-.16-1.41-.16-.71.09-1.41.09a.65.65,0,0,0-.66.65c0,.7,0,.7,0,1.4s-.11.7-.11,1.4.05.69.05,1.39-.05.7-.05,1.4.22.7.22,1.4-.2.7-.2,1.4.06.7.06,1.4.11.7.11,1.4-.1.7-.1,1.4,0,.7,0,1.4-.06.71-.06,1.41c0,.45.06.91.1,1.36s.2.88.27,1.33.12.89.22,1.33.14.89.27,1.32.32.85.48,1.27.26.87.45,1.27.56.73.78,1.12.43.79.67,1.16.52.73.79,1.09.43.81.73,1.15.73.54,1.05.86.63.63,1,.92.61.67,1,.94.79.44,1.17.69.73.52,1.12.74.81.39,1.22.58.83.33,1.26.49.84.3,1.27.42.85.33,1.29.43.88.18,1.33.24.91,0,1.36.05.89,0,1.35,0c.92,0,.92-.06,1.84-.06a.78.78,0,0,1,.7.91c0,.67-.11.67-.11,1.35s.06.68.06,1.35,0,.68,0,1.36,0,.68,0,1.35-.05.68-.05,1.36,0,.68,0,1.35,0,.68,0,1.36,0,.68,0,1.36.1.67.1,1.35v1.35c0,.68,0,.68,0,1.36s-.12.68-.12,1.36.07.67.07,1.35-.09.68-.1,1.36.14.68.13,1.36,0,.68,0,1.35,0,.68,0,1.36-.11.69-.11,1.37.12.68.09,1.36a.62.62,0,0,0,.64.76c.72,0,.72.17,1.44.17s.72-.16,1.45-.16.72-.06,1.44-.06a.47.47,0,0,0,.53-.42c0-.66,0-.65,0-1.31s0-.66,0-1.32.06-.66.07-1.31.16-.66.16-1.32-.11-.66-.1-1.32,0-.66,0-1.32,0-.65,0-1.31.14-.66.14-1.32-.12-.66-.12-1.32,0-.66,0-1.32.07-.65.07-1.31.16-.66.16-1.32-.12-.66-.11-1.32.07-.66.07-1.31-.07-.66-.06-1.32,0-.66,0-1.32,0-.66,0-1.32,0-.66,0-1.33-.06-.66,0-1.32.11-.66.14-1.32c.07-.3.31-.62.62-.62.86,0,.86.11,1.71.11.46,0,.9-.11,1.35-.14s.92.09,1.36,0,.87-.25,1.31-.35.9-.12,1.34-.24.87-.25,1.29-.41.82-.38,1.23-.56.76-.5,1.15-.71.88-.28,1.26-.52.74-.53,1.1-.79.74-.53,1.08-.82.68-.61,1-.93.53-.73.83-1.07.62-.66.89-1,.49-.75.74-1.13.53-.73.75-1.12.49-.77.68-1.18.29-.85.45-1.28.19-.88.32-1.31.3-.85.4-1.29.29-.86.36-1.31.08-.89.11-1.35.06-.9.06-1.35V295c0-.7-.13-.7-.13-1.4s.11-.69.11-1.39,0-.7,0-1.4-.06-.7-.06-1.4-.11-.7-.11-1.4,0-.7,0-1.4,0-.7,0-1.4.1-.7.1-1.4.05-.7.05-1.4-.19-.71-.19-1.41c0-.36-.18-.64-.55-.64h-1.41c-.7,0-.7,0-1.4,0s-.71-.14-1.41-.14A.79.79,0,0,0,207.83,281Z"/><path d="M157.77,311c-.66,0-.67.08-1.33.05s-.66-.08-1.32-.11l-1.33-.06c-.66,0-.66,0-1.32,0s-.66-.15-1.32-.18-.66.06-1.32,0-.66-.17-1.32-.2l-1.33-.06c-.66,0-.66.05-1.32,0l-1.33-.07c-.66,0-.66-.09-1.32-.12s-.67,0-1.33,0l-1.33-.06c-.67,0-.67-.06-1.33-.09a.54.54,0,0,1-.54-.6c0-.68-.08-.68-.08-1.35s-.11-.68-.11-1.35.19-.67.19-1.35-.13-.67-.13-1.35,0-.67,0-1.35,0-.67,0-1.35-.07-.67-.07-1.35.17-.67.17-1.35-.07-.67-.07-1.35-.05-.67-.05-1.35-.07-.68-.07-1.35.2-.68.2-1.35,0-.67,0-1.35,0-.67,0-1.35-.2-.67-.2-1.35.2-.68.2-1.35-.18-.68-.18-1.36.15-.67.15-1.35,0-.68,0-1.35v-1.36c0-.68,0-.68,0-1.36a.79.79,0,0,0-.72-.75c-.7,0-.7.11-1.4.11s-.71-.11-1.41-.11-.71,0-1.41,0a.66.66,0,0,0-.59.72c0,.67,0,.67,0,1.34s-.12.66-.12,1.33.13.67.13,1.33-.07.67-.07,1.34-.11.66-.11,1.33.18.67.18,1.33-.11.67-.11,1.34,0,.67,0,1.34.11.66.11,1.33-.24.67-.24,1.34.22.66.22,1.33-.18.67-.18,1.33,0,.67,0,1.34-.07.67-.07,1.33.11.67.11,1.34-.08.67-.08,1.34.18.67.18,1.33,0,.67,0,1.34-.17.67-.17,1.34,0,.67,0,1.34,0,.67,0,1.34a.48.48,0,0,1-.57.55c-.66,0-.66,0-1.31-.08s-.66,0-1.32,0-.66-.06-1.32-.09l-1.31-.07c-.66,0-.66,0-1.32,0s-.66-.06-1.31-.09-.67.06-1.33,0-.65-.06-1.31-.09-.66.07-1.32,0-.66,0-1.32,0-.66-.14-1.32-.17-.66-.06-1.32-.09-.66,0-1.32,0-.67,0-1.33,0c-.38,0-.6.17-.6.55,0,.7-.14.7-.14,1.39s-.07.7-.07,1.4v1.4a.82.82,0,0,0,.75.7c.67,0,.67,0,1.33,0l1.33.05c.66,0,.65.15,1.32.18l1.32.05c.66,0,.67,0,1.33,0s.66-.06,1.32,0,.66.18,1.32.21.67-.06,1.33,0,.66.13,1.33.16.66,0,1.33,0l1.32.05c.67,0,.67,0,1.34,0l1.33.07c.66,0,.66.08,1.33.11a.54.54,0,0,1,.55.6c0,.66.07.66.07,1.31s-.09.66-.09,1.31.17.66.17,1.31-.08.66-.08,1.31,0,.66,0,1.31,0,.66,0,1.31,0,.66,0,1.31v1.31c0,.66,0,.66,0,1.31s.15.66.15,1.32-.05.65-.05,1.3-.09.66-.09,1.31.1.66.1,1.32-.06.65-.06,1.31,0,.65,0,1.31-.15.66-.15,1.31.11.66.11,1.31-.06.66-.06,1.32-.08.66-.08,1.32.19.65.19,1.31a.64.64,0,0,0,.58.72c.7,0,.7.07,1.41.07s.7-.22,1.41-.22.7,0,1.4,0c.37,0,.59-.17.59-.54v-1.36c0-.68.15-.68.15-1.36s0-.68,0-1.36,0-.68,0-1.36v-1.37c0-.68-.13-.68-.13-1.36s.11-.68.11-1.36V331.4c0-.69-.12-.69-.12-1.37s0-.68,0-1.36.21-.68.21-1.36-.22-.68-.22-1.36.22-.68.22-1.36,0-.69,0-1.37-.09-.68-.09-1.36.11-.69.11-1.37-.11-.68-.11-1.37,0-.68,0-1.36.07-.69.07-1.37a.57.57,0,0,1,.63-.61l1.31.07c.66,0,.67-.15,1.32-.12s.65.21,1.31.24.66-.11,1.32-.08.66.06,1.31.09.65.2,1.31.23.66-.15,1.32-.12.66.08,1.31.11.66.08,1.32.11l1.31.07,1.32.05c.66,0,.66,0,1.32,0s.66-.07,1.32,0,.66.11,1.32.14a.59.59,0,0,0,.64-.63c0-.7.1-.7.1-1.4v-1.39c0-.7-.1-.7-.1-1.4A.67.67,0,0,0,157.77,311Z"/><path d="M88.72,267.74c-.44,0-.88-.19-1.32-.21l-1.33-.07c-.44,0-.9.07-1.34,0s-.88-.14-1.32-.21-.84-.33-1.27-.42-.87-.17-1.29-.28-.89-.14-1.31-.26-.82-.36-1.23-.51-.86-.23-1.27-.39-.83-.32-1.24-.5-.84-.3-1.24-.5-.74-.49-1.13-.71-.81-.37-1.19-.61-.78-.42-1.15-.67-.72-.52-1.08-.79-.72-.52-1.06-.8-.69-.57-1-.86-.62-.64-.94-.94-.7-.57-1-.88-.5-.74-.8-1.08-.7-.56-1-.91-.38-.82-.65-1.18-.56-.68-.81-1-.52-.72-.76-1.1-.48-.74-.7-1.13-.47-.75-.67-1.15-.32-.83-.51-1.23-.29-.84-.46-1.25-.35-.81-.5-1.22-.49-.78-.62-1.2-.11-.89-.23-1.32-.33-.84-.42-1.27-.21-.87-.28-1.31-.15-.87-.2-1.32.13-.9.1-1.35-.14-.87-.16-1.32,0-.88,0-1.32-.09-.9-.07-1.34,0-.89.05-1.33.23-.87.29-1.31,0-.89.09-1.33.24-.86.33-1.29.14-.88.25-1.31.32-.83.46-1.25.31-.83.46-1.24.15-.9.32-1.31.43-.78.62-1.18.3-.84.5-1.23.56-.71.78-1.09.41-.78.65-1.16.4-.8.65-1.16.6-.66.87-1,.44-.78.72-1.13.53-.71.83-1,.59-.67.9-1,.74-.51,1.06-.82.56-.7.89-1,.73-.52,1.07-.79.75-.48,1.11-.75.72-.5,1.09-.75.73-.49,1.11-.72.73-.51,1.12-.72.79-.39,1.19-.59.72-.55,1.12-.73.87-.23,1.28-.4.81-.37,1.23-.52.84-.26,1.27-.38.87-.16,1.31-.27.83-.29,1.27-.38.85-.25,1.29-.32.88-.11,1.33-.17.87-.2,1.31-.24.9.07,1.34.05.89,0,1.33,0,.9-.18,1.34-.16.87.26,1.31.3.89,0,1.33.1.87.15,1.31.23.9,0,1.33.09.85.28,1.28.39.85.25,1.27.38.82.34,1.24.49.85.25,1.26.41.89.18,1.3.36.8.39,1.2.59.79.4,1.18.62.68.59,1.06.82.74.49,1.11.73.86.32,1.22.58.63.64,1,.92.62.64.95.94.73.51,1.05.81.59.66.9,1,.66.6,1,.93.7.57,1,.91.45.78.72,1.13.53.71.78,1.08.43.77.67,1.15.49.73.71,1.12.4.79.61,1.18.38.8.57,1.2.32.83.48,1.24.37.8.52,1.22.33.82.46,1.25.24.85.36,1.28.21.86.3,1.29.31.84.39,1.28,0,.9.08,1.34.17.87.21,1.31.05.89.07,1.33-.08.89-.08,1.34.15.89.13,1.33,0,.89-.09,1.33-.16.88-.21,1.32,0,.9-.1,1.33-.33.84-.42,1.28-.09.89-.2,1.32-.28.84-.41,1.26l-.42,1.27c-.15.41-.27.85-.44,1.26s-.45.77-.64,1.17-.3.84-.5,1.23-.53.72-.75,1.11-.44.76-.67,1.14-.42.79-.67,1.15-.51.72-.78,1.08-.58.66-.86,1-.52.72-.82,1.05-.59.66-.9,1-.64.6-1,.91-.68.57-1,.86-.62.63-1,.91-.64.63-1,.9-.83.36-1.2.61-.67.59-1,.82-.79.41-1.18.63-.76.46-1.15.66-.77.45-1.18.63-.88.2-1.29.36-.8.39-1.22.53-.83.33-1.25.46-.84.31-1.27.42-.9,0-1.34.12-.86.19-1.3.27l-1.31.18c-.44.05-.86.3-1.31.33s-.89-.13-1.34-.11S89.17,267.74,88.72,267.74Zm0-56.93c-.45,0-.91-.17-1.35-.15s-.91.07-1.36.11-.87.26-1.32.33-.89.13-1.33.22-.92,0-1.36.15-.87.26-1.29.4-.83.38-1.25.54-.88.25-1.29.43-.79.44-1.19.65-.79.43-1.18.66-.73.52-1.11.77-.81.41-1.18.67-.68.6-1,.88-.65.61-1,.91-.68.58-1,.9-.63.65-.93,1-.6.66-.89,1-.61.66-.88,1-.46.77-.71,1.15-.6.68-.83,1.07-.31.86-.52,1.26-.59.71-.78,1.12-.32.85-.48,1.27-.28.85-.42,1.28-.25.87-.37,1.3-.18.89-.27,1.33-.27.86-.34,1.31-.2.88-.25,1.33,0,.91-.07,1.36.16.9.16,1.36-.13.9-.11,1.35.18.89.23,1.33.13.89.2,1.34.16.88.25,1.32,0,.94.08,1.37.32.85.46,1.28.29.86.45,1.28.43.8.61,1.21.42.79.63,1.19.29.87.52,1.26.56.71.81,1.09.44.79.71,1.15.6.68.88,1,.51.75.82,1.08.58.7.9,1,.77.5,1.11.8.61.67,1,1,.76.48,1.13.75.64.65,1,.9.79.45,1.18.67.83.36,1.23.56.76.51,1.18.69.88.23,1.3.39.86.27,1.29.4.86.26,1.3.37.83.38,1.27.47.91,0,1.36.11.88.2,1.33.25.89.16,1.34.18.91,0,1.36,0,.91,0,1.36,0,.9-.13,1.35-.17.9-.08,1.34-.14.86-.32,1.3-.42.91-.07,1.35-.18.85-.3,1.28-.44.86-.26,1.28-.42.88-.24,1.29-.43.79-.44,1.19-.65.77-.48,1.16-.7.79-.44,1.17-.68.69-.58,1.06-.84.8-.43,1.15-.71.73-.53,1.07-.83.54-.74.86-1.06.78-.5,1.08-.83.58-.7.86-1,.6-.68.86-1,.4-.83.65-1.2.56-.72.78-1.1.47-.78.68-1.18.48-.77.66-1.18.31-.85.48-1.27.15-.9.3-1.33.28-.85.4-1.29.22-.86.31-1.31.36-.84.43-1.29.15-.89.19-1.34-.14-.92-.11-1.37.16-.89.16-1.34.11-.91.08-1.36-.16-.9-.21-1.35,0-.9-.11-1.35-.22-.88-.31-1.32-.35-.84-.47-1.27-.12-.9-.27-1.33-.3-.85-.46-1.27-.27-.87-.45-1.28-.43-.8-.63-1.2-.4-.81-.63-1.2-.46-.78-.71-1.15-.47-.78-.74-1.14-.58-.69-.87-1-.61-.67-.91-1-.61-.67-.93-1-.65-.64-1-.94-.77-.48-1.12-.76-.63-.65-1-.92-.78-.45-1.16-.7-.75-.49-1.14-.71-.74-.54-1.14-.74-.88-.25-1.29-.43-.82-.36-1.25-.52-.81-.38-1.24-.51-.89-.17-1.33-.29-.83-.38-1.27-.47-.91-.06-1.35-.13-.89-.17-1.34-.22-.89-.08-1.35-.1S89.18,210.81,88.72,210.81Z"/><path d="M92.94,236.44a4.49,4.49,0,0,1-.1,1.33,4.3,4.3,0,0,1-.74,1.11,4.06,4.06,0,0,1-.9,1,4.62,4.62,0,0,1-1.15.69,4.53,4.53,0,0,1-1.33,0,4.39,4.39,0,0,1-1.31-.09,4.18,4.18,0,0,1-1.15-.64,4.11,4.11,0,0,1-1-.9,4.06,4.06,0,0,1-.58-1.18,4.1,4.1,0,0,1-.34-1.29,4.45,4.45,0,0,1,.41-1.28,4.29,4.29,0,0,1,1.48-2.08,4.22,4.22,0,0,1,1.14-.67,4.38,4.38,0,0,1,1.31-.2,4.44,4.44,0,0,1,1.32.2,4.66,4.66,0,0,1,1.17.61,4.24,4.24,0,0,1,1,.91,4.42,4.42,0,0,1,.54,1.21A4.27,4.27,0,0,1,92.94,236.44Z"/><path d="M139.31,271.83c-.32-.63-.21-.68-.53-1.31s-.39-.58-.71-1.21-.35-.6-.67-1.23a.8.8,0,0,1,.24-1,9.92,9.92,0,0,0,1.23-.59c.33-.22.74-.44,1.14-.75s.6-.65,1-1,.62-.64.95-1,.76-.52,1.07-.86.52-.74.81-1.1.59-.68.85-1.06.44-.79.67-1.18.54-.74.74-1.15.36-.83.52-1.26.21-.88.34-1.32.2-.87.28-1.32a36.86,36.86,0,0,0,.23-2.7c0-.46.1-.92.06-1.37s-.07-.92-.14-1.37-.26-.89-.37-1.33-.2-.89-.34-1.33-.33-.85-.5-1.27-.38-.83-.58-1.25-.44-.79-.66-1.19-.43-.8-.66-1.2-.46-.78-.71-1.17-.4-.83-.65-1.21-.46-.8-.72-1.17-.52-.76-.79-1.13-.73-.6-1-1-.45-.78-.72-1.14-.56-.7-.82-1.07-.55-.71-.8-1.09-.41-.8-.65-1.18-.46-.77-.69-1.16-.48-.76-.7-1.15-.53-.74-.73-1.14-.4-.81-.59-1.22-.28-.85-.44-1.27-.2-.88-.34-1.31-.4-.81-.52-1.24-.15-.89-.24-1.33-.27-.86-.33-1.31.05-.9,0-1.36-.08-.88-.08-1.34,0-.89,0-1.32.06-.89.1-1.32.16-.88.22-1.31,0-.9.09-1.33.37-.82.48-1.24.09-.9.23-1.31.4-.81.56-1.2.21-.89.4-1.28.56-.72.77-1.09.39-.81.62-1.17.49-.75.74-1.09.49-.76.77-1.09.68-.6,1-.9.58-.71.88-1a11.87,11.87,0,0,1,1.07-.78,10.51,10.51,0,0,1,1.09-.72.53.53,0,0,1,.83.16c.3.53.36.49.65,1s.21.58.51,1.1.5.41.8.94.73,1.67.43,1.14-.17-.69-.51-1.29-.42-.56-.75-1.17.28.46.55.92.18.52.45,1a.54.54,0,0,1-.21.76c-.26.19-.47.63-.86,1a9.53,9.53,0,0,0-1.08.74c-.27.29-.47.69-.75,1s-.48.68-.73,1.06-.44.71-.66,1.1-.49.7-.67,1.1-.27.81-.42,1.23-.27.8-.38,1.22a12.66,12.66,0,0,0-.21,1.28c-.08.41-.37.79-.43,1.23s.06.87,0,1.31,0,.85,0,1.29-.09.94-.05,1.4a12.2,12.2,0,0,0,.31,1.36c.09.46,0,1,.13,1.41s.34.87.5,1.31.25.91.44,1.34.5.79.71,1.21.38.85.62,1.26.62.71.87,1.1.39.86.65,1.25.46.81.73,1.2.6.71.87,1.09.67.66,1,1,.35.84.61,1.2.65.62.91,1l.76,1.1c.24.36.42.77.67,1.15s.46.75.7,1.12.46.76.68,1.15.4.78.6,1.18.5.74.69,1.14.24.86.42,1.27.36.8.51,1.22.4.8.52,1.23.07.9.17,1.33.31.83.39,1.27.09.88.15,1.32.13.88.15,1.32,0,.88,0,1.33.13.9.1,1.33-.28.86-.33,1.29-.11.87-.19,1.3-.16.87-.27,1.29-.15.87-.29,1.28-.29.84-.46,1.24-.34.81-.53,1.21-.41.78-.62,1.16-.4.79-.63,1.16-.55.69-.81,1-.58.66-.85,1-.5.74-.79,1.06-.49.76-.79,1.07-.67.58-1,.87-.61.66-.93.93-.79.47-1.12.73-.72.54-1.06.78-.67.65-1,.86-.88.43-1.17.6A.74.74,0,0,1,139.31,271.83Z"/><path d="M41.76,262c-.45,0-.9,0-1.33,0s-.89-.11-1.33-.16-.91.06-1.34,0-.89-.16-1.32-.24-.84-.35-1.27-.45-.92,0-1.34-.15-.86-.27-1.27-.41-.87-.25-1.27-.41-.84-.34-1.23-.53-.77-.48-1.15-.69-.82-.38-1.19-.62-.76-.5-1.1-.76-.63-.66-.95-.95-.68-.59-1-.9-.62-.64-.9-1-.58-.69-.84-1-.42-.79-.65-1.16-.45-.77-.65-1.16-.48-.76-.66-1.16-.25-.87-.4-1.28a.58.58,0,0,1,.6-.79c.68,0,.68.05,1.37.05s.68-.23,1.37-.23c.45,0,.9.07,1.35,0s.89-.14,1.34-.2.9-.07,1.34-.16.91-.08,1.35-.19.86-.29,1.29-.42.89-.22,1.31-.38.8-.44,1.21-.62.84-.33,1.24-.55.83-.38,1.21-.62.74-.53,1.11-.8.66-.62,1-.9.79-.47,1.13-.77.58-.7.9-1,.65-.63,1-1,.59-.69.86-1.06.5-.75.74-1.13.4-.82.62-1.21.53-.74.72-1.15.34-.84.5-1.26.44-.81.58-1.24,0-.93.14-1.37.25-.86.33-1.31.08-.89.13-1.35.28-.88.3-1.33,0-.91,0-1.36-.12-.9-.16-1.35-.15-.89-.22-1.33,0-.92-.12-1.35-.29-.86-.42-1.29-.32-.85-.47-1.27-.2-.89-.38-1.3-.41-.81-.62-1.21-.46-.78-.69-1.16-.46-.78-.72-1.15-.55-.71-.83-1.07-.58-.69-.89-1-.72-.55-1-.86-.55-.73-.9-1-.76-.48-1.12-.75-.7-.57-1.08-.81-.76-.48-1.15-.7-.83-.36-1.23-.56-.76-.49-1.18-.66-.85-.31-1.28-.45-.9-.12-1.33-.23-.86-.25-1.31-.33-.88-.13-1.33-.19-.87-.34-1.32-.37-.9.1-1.36.1c-.67,0-.67-.07-1.35-.07s-.67-.07-1.35-.07H20.39c-.68,0-.68.2-1.36.2s-.67-.18-1.35-.18-.68,0-1.35,0-.68.12-1.36.12-.67.05-1.35.05-.67-.09-1.35-.09-.68-.07-1.35-.07-.68,0-1.36,0-.67.12-1.35.12-.68-.08-1.36-.08-.68.07-1.35.07-.68-.14-1.36-.14-.68.13-1.36.13-.68-.13-1.36-.13a.78.78,0,0,0-.68.78c0,.67.12.67.12,1.33s-.11.67-.11,1.34.1.67.1,1.33v1.34c0,.67,0,.67,0,1.34S.66,214.3.66,215s.19.66.19,1.33-.16.67-.16,1.34.13.66.13,1.33-.17.66-.17,1.33,0,.67,0,1.33S.63,222.3.63,223s.13.67.13,1.34-.12.66-.12,1.33.08.67.08,1.34,0,.67,0,1.34,0,.67,0,1.33.08.67.08,1.34-.08.67-.08,1.34.05.66.05,1.33.08.67.08,1.34-.06.66-.06,1.33,0,.67,0,1.34,0,.67,0,1.34-.11.67-.11,1.34.15.67.15,1.33,0,.67,0,1.34,0,.67,0,1.34,0,.67,0,1.34-.15.67-.15,1.34,0,.67,0,1.34.06.67.06,1.34.16.67.16,1.34-.08.67-.08,1.34.06.67.06,1.34-.16.67-.16,1.34.15.67.15,1.34,0,.67,0,1.34-.07.67-.07,1.34-.06.67-.06,1.34-.09.67-.09,1.34.2.67.2,1.34-.18.67-.18,1.35.17.67.17,1.34,0,.68,0,1.35c0,.36.17.65.54.65H2.83c.7,0,.7-.07,1.4-.07s.71.07,1.41.07a.77.77,0,0,0,.78-.66c0-.67-.1-.67-.1-1.33s.12-.67.12-1.34,0-.66,0-1.33-.11-.67-.11-1.33-.12-.66-.12-1.33.19-.66.19-1.33-.1-.66-.1-1.32.15-.67.15-1.33-.15-.67-.15-1.33.15-.67.15-1.33-.21-.67-.21-1.33.07-.67.07-1.34.07-.67.07-1.33.07-.67.07-1.33,0-.67,0-1.33-.12-.67-.12-1.34.16-.66.16-1.33-.06-.66-.06-1.33v-1.34c0-.66,0-.66,0-1.33s-.1-.67-.1-1.33.08-.67.08-1.34-.09-.66-.09-1.33.15-.67.15-1.34-.18-.66-.18-1.33,0-.67,0-1.34.15-.66.15-1.33-.06-.67-.06-1.34-.07-.67-.07-1.33.23-.67.23-1.34,0-.67,0-1.34,0-.66,0-1.33-.23-.67-.23-1.33,0-.67,0-1.34,0-.67,0-1.34,0-.66,0-1.33,0-.67,0-1.34.16-.67.16-1.34-.17-.67-.17-1.34.17-.67.17-1.34-.21-.67-.21-1.34c0-.37.42-.58.79-.58.65,0,.65,0,1.31,0s.65-.19,1.31-.19.65.15,1.31.15.65,0,1.31,0,.65-.07,1.3-.07h1.32c.65,0,.65-.07,1.31-.07s.65.14,1.31.14.66,0,1.31,0,.66.06,1.31.06.66-.16,1.32-.16.66.1,1.32.1.65-.06,1.31-.06c.47,0,.93,0,1.39,0s.9.2,1.35.28.89.26,1.33.38a12.6,12.6,0,0,1,1.37.22c.44.15.82.44,1.24.63s.77.49,1.17.71.92.27,1.3.52.75.56,1.1.85.55.76.88,1.08.72.58,1,.92.62.68.9,1.05.6.71.84,1.1.41.83.61,1.25.28.88.44,1.31.32.85.44,1.3.35.86.43,1.32.11.91.15,1.38,0,.92,0,1.38a11.91,11.91,0,0,1-.06,1.34,11.65,11.65,0,0,1-.19,1.32,11.91,11.91,0,0,1-.28,1.32c-.12.43-.44.79-.6,1.2s-.33.83-.52,1.23-.29.85-.52,1.23-.5.75-.76,1.11-.54.7-.83,1-.69.57-1,.88-.59.67-.94.95-.67.58-1,.83-.72.54-1.11.76-.86.26-1.27.45-.83.29-1.25.44-.79.41-1.23.53-.85.27-1.29.34a12,12,0,0,1-1.34,0c-.44,0-.88.17-1.33.17-.65,0-.65-.05-1.3-.05s-.64.07-1.29.07-.65-.11-1.3-.11l-1.3,0c-.65,0-.65.1-1.3.1l-1.3,0c-.65,0-.65,0-1.3,0l-1.3,0c-.43,0-.77.3-.68.71.13.63.11.64.24,1.27s.23.61.37,1.24c.09.44.15.88.26,1.3s.25.85.37,1.27.28.84.42,1.25.33.82.48,1.23.32.82.5,1.22.34.82.53,1.21.3.84.51,1.22.38.81.62,1.18.47.76.72,1.11.71.58,1,.92.49.74.78,1.07.64.61,1,.92.65.58,1,.87.59.66.94.94.68.55,1,.81.74.48,1.11.72.8.36,1.19.57.77.42,1.17.61.75.45,1.16.62.77.46,1.18.62.88.16,1.3.29.82.33,1.25.45.87.11,1.31.22.82.34,1.26.43.87.13,1.3.2.88.1,1.32.16.87.11,1.31.15.87.14,1.32.17.88-.1,1.33-.08.87.21,1.32.22a.71.71,0,0,0,.6-.93c-.2-.7-.1-.73-.29-1.43s-.35-.66-.55-1.37,0-.75-.22-1.45A.78.78,0,0,0,41.76,262Z"/><path d="M171.27,249.54a11.17,11.17,0,0,1,.19-1.31,13.2,13.2,0,0,1,.26-1.31c.15-.42.34-.83.53-1.23a35.61,35.61,0,0,1,1.46-2.23,12.3,12.3,0,0,1,.84-1c.33-.31.81-.43,1.16-.7a11.7,11.7,0,0,1,1.07-.78,12.09,12.09,0,0,1,1.11-.76,11.14,11.14,0,0,1,1.29-.35,11.5,11.5,0,0,1,1.28-.34,11.27,11.27,0,0,1,1.3-.34,11.65,11.65,0,0,1,1.33-.05c.67,0,.67.15,1.33.15s.66-.25,1.33-.25.66.18,1.33.18h1.32c.67,0,.67,0,1.33,0s.67-.14,1.33-.14.67.07,1.33.07h2.66c.66,0,.66-.11,1.33-.11s.66.15,1.32.15.67.06,1.34.06.66-.07,1.32-.07.67,0,1.34,0,.66.05,1.33.05.66,0,1.33,0,.66-.18,1.33-.18.67.16,1.34.16.66,0,1.33,0a.85.85,0,0,0,.76-.86L209,237c-.08-.7-.26-.68-.34-1.38s0-.71-.06-1.41a.73.73,0,0,0-.69-.63c-.69,0-.69.17-1.38.17s-.68-.22-1.37-.22-.69.07-1.37.07-.69-.07-1.38-.07-.69,0-1.38,0-.68.07-1.37.07h-2.75c-.69,0-.69,0-1.38,0s-.68,0-1.37,0-.69-.06-1.38-.06h-1.37c-.69,0-.69.16-1.38.16s-.69-.13-1.38-.13h-1.38c-.69,0-.69.13-1.38.13s-.69-.07-1.38-.07-.69-.12-1.38-.12a12.26,12.26,0,0,1-1.34.1,9.7,9.7,0,0,1-1.33-.21,11.18,11.18,0,0,1-1.29-.36c-.43-.14-.76-.5-1.17-.68a13.26,13.26,0,0,1-1.23-.51,12.06,12.06,0,0,1-1.15-.69,10.69,10.69,0,0,1-.9-1c-.32-.31-.58-.66-.87-1s-.66-.61-.91-1a12.13,12.13,0,0,1-.53-1.22,8.78,8.78,0,0,1-.57-1.2,8.93,8.93,0,0,1-.35-1.28,9.22,9.22,0,0,1-.14-1.31,13.51,13.51,0,0,1-.23-1.37,9.7,9.7,0,0,1,.9-4,11.67,11.67,0,0,1,.52-1.27,13.35,13.35,0,0,1,.81-1.12,10.46,10.46,0,0,1,.79-1.14,11.59,11.59,0,0,1,1.12-.83,8.27,8.27,0,0,1,2.22-1.6,11.65,11.65,0,0,1,1.26-.54,31.6,31.6,0,0,0,2.67-.72,10.94,10.94,0,0,1,1.38.1c.68,0,.68-.07,1.36-.07s.68,0,1.36,0h2.72c.69,0,.69-.11,1.37-.11s.68.21,1.36.21.68-.23,1.36-.23.68,0,1.37,0,.68.16,1.36.16.68,0,1.36,0,.68-.17,1.37-.17.68.12,1.36.12.68-.06,1.36-.06.68,0,1.36,0,.68,0,1.37,0,.68.12,1.36.12.68-.16,1.37-.16.68.06,1.36.06.68-.12,1.37-.12.68.11,1.36.11.69-.08,1.37-.08.69.15,1.37.15a.71.71,0,0,0,.67-.72c0-.7-.13-.7-.13-1.39s.22-.7.22-1.4-.19-.7-.19-1.4a.62.62,0,0,0-.57-.7c-.67,0-.67,0-1.34,0s-.67-.1-1.34-.1-.67.07-1.34.07-.67-.08-1.34-.08-.67.2-1.34.2-.67-.16-1.34-.16-.67.16-1.34.16-.67-.1-1.35-.1-.67.1-1.34.1-.67-.09-1.34-.09-.67.14-1.34.14-.68-.15-1.35-.15H194c-.67,0-.67.11-1.34.11s-.67,0-1.35,0-.67-.11-1.34-.11-.67.15-1.35.15-.67-.09-1.34-.09-.67.08-1.35.08-.67,0-1.35,0-.67,0-1.35,0c-.45,0-.89,0-1.34,0s-.9,0-1.34.08-.88.23-1.31.33-.9.13-1.32.27-.8.44-1.22.6-.84.31-1.24.51-.79.42-1.17.64-.83.38-1.2.64-.79.44-1.14.73-.61.67-.94,1-.66.61-1,.94-.51.75-.79,1.1-.68.61-.93,1-.52.75-.74,1.14-.28.87-.47,1.28-.42.8-.57,1.22-.36.83-.48,1.26-.2.89-.28,1.33-.11.89-.15,1.34,0,.9,0,1.35,0,.91.07,1.35.15.89.21,1.33-.08.94,0,1.37.43.82.57,1.25.11.92.28,1.34.37.83.58,1.23.55.72.78,1.11.51.73.78,1.1.52.72.81,1.07.53.73.85,1.05.64.64,1,.93.77.48,1.14.75a.71.71,0,0,1,0,1.13c-.36.26-.7.57-1,.86s-.68.59-1,.91-.71.57-1,.91-.44.81-.7,1.17-.55.71-.79,1.1-.54.73-.74,1.13-.37.83-.54,1.25-.27.85-.41,1.29-.33.84-.43,1.28-.18.88-.25,1.33,0,.9,0,1.36-.12.89-.11,1.34,0,.91,0,1.35.22.88.3,1.32.11.9.23,1.33.15.9.3,1.32.41.81.6,1.22.3.86.52,1.25.57.71.82,1.08.56.7.84,1.05.42.83.72,1.16.81.47,1.13.77.66.6,1,.88.65.63,1,.89.72.54,1.1.76.84.35,1.24.55.77.47,1.19.63.87.23,1.29.37.86.23,1.3.34.87.17,1.32.24.86.32,1.31.36.9.05,1.35.05h1.34c.67,0,.67-.08,1.34-.08s.67,0,1.34,0,.68,0,1.35,0,.67-.09,1.34-.09.67.13,1.34.13.67-.15,1.34-.15.67.11,1.35.11h1.34c.67,0,.67,0,1.34,0s.67,0,1.34,0,.68,0,1.35,0,.67,0,1.34,0,.67-.17,1.34-.17.67,0,1.34,0,.67.18,1.34.18.68-.18,1.35-.18h1.35c.67,0,.67-.05,1.34-.05h1.35c.67,0,.67.1,1.35.1s.67-.08,1.34-.08a.49.49,0,0,0,.55-.55c0-.7.13-.7.13-1.4s0-.7,0-1.4,0-.69,0-1.39a.59.59,0,0,0-.64-.6c-.68,0-.68-.09-1.36-.09H210c-.68,0-.68.1-1.36.1s-.68-.11-1.36-.11-.68,0-1.36,0-.68,0-1.36,0-.69.22-1.37.22-.68-.07-1.36-.07-.68.07-1.36.07-.69-.05-1.37-.05-.68-.1-1.36-.1-.68.06-1.37.06-.68-.08-1.36-.08-.68.1-1.36.1-.68-.07-1.36-.07-.68-.06-1.37-.06-.68.05-1.36.05-.68.11-1.37.11-.68-.15-1.36-.15-.69.11-1.37.11-.69-.06-1.37-.06-.69,0-1.37,0a17.45,17.45,0,0,1-2.75-.19,205.19,205.19,0,0,1-2.56-1,12.49,12.49,0,0,1-1.11-.8,13.25,13.25,0,0,1-1.24-.65,13,13,0,0,1-1-1,12.77,12.77,0,0,1-.92-1,12.1,12.1,0,0,1-.56-1.28,12.72,12.72,0,0,1-.6-1.23,10.85,10.85,0,0,1-.51-1.27,10.08,10.08,0,0,1-.33-1.34,12.74,12.74,0,0,1,0-1.38A10.37,10.37,0,0,1,171.27,249.54Z"/><path d="M203,95.33l-.46-1.52-.17-1.55-.31-1.52-.5-1.48-.53-1.46-.78-1,.2-.22-1.14-1.57-.4-1.12-.7-1.1-.69-.81-.06.08L197,80.92l-1.28-1-.87-1.3L194,77.31l-1.22-1-.74-1.46-1.52-.68-1-1.15-.91-1.34L187.12,71l-1-1.31-1.59-.47-1.24-.94-1.19-1-1.27-.92-1.51-.5-.44-.26.12-.81-.21-1.55-.06-1.55-.06-1.56-.08-1.55V57l.16-1.56,0-.36.21-.33.36-1.57.33-1.56.43-1.53.14-1.61L181,47l.41-1.53.12-1.61.53-1.5.54-1.5.09-1.62.62-1.47.37-1.55.74-1.44.19-1.59.47-1.51.38-1.54.38-1.54.22-1.59.67-1.47-1.51.3-1.49-.54-1.49.38-1.49-.09-1.48-.32h-1.49l-1.48.32-1.46,0,.06,1.51v1.53l.11,1.52-.35,1.53.26,1.64-1.89,0-1.93.07.18-1.69-.35-1.53.3-1.52L171,27.11l.24-1.57h-1.54l-1.49.31-1.49-.47-1.48.11-1.49.28-1.49-.44-1.61.14.33,1.65-.41,1.53v1.52l0,1.53.07,1.42L159,33l-1.83.29.31-1.57-.12-1.53.08-1.52-.25-1.52-.05-1.46-1.43-.2-1.49.4-1.49,0h-1.48l-1.49-.1-1.49.11-1.56-.38-.06,1.6-.09,1.53.42,1.52-.32,1.53v1.36L145,33l-1.86.27.24-1.61-.3-1.53.1-1.52.21-1.52L143,25.78l-1.29-.49-1.49.42-1.48-.13-1.49-.15-1.48.08-1.49.12-1.48.21-1.72-.42.4,1.77.43,1.53.77,1.44.43,1.53.49,1.51.31,1.56.16,1.6.54,1.5.32,1.55.62,1.48.2,1.59.82,1.42.15,1.6.45,1.52.6,1.48.09.75-.31-.21-1.31-.85-1.36-.76-1.34-.81-1.3-.86L131,44.82l-1.59-.3L128,43.87l-1.33-.9h0l0-.43,0-1.54.15-1.55-.49-1.55.54-1.55-.29-1.55.27-1.55-.21-1.55-.24-1.55.47-1.55-.09-.94.46-1.34.24-1.59.28-1.57.72-1.44.21-1.59.88-1.4-.09-1.67.95-1.38.29-1.57.5-1.51.12-1.61.73-1.44L132.54,8l0-1.63L133.36,5V3.31l.56-1.49L134.56.2l-1.64.16L131.43.1,129.94,0l-1.48.15L127,.18,125.49.5,124,.17l-1.55.07-.21,1.6.1,1.53.18,1.52-.18,1.52.34,1.72-2-.12-1.84,0,.05-1.58-.05-1.53-.07-1.52,0-1.53V.44L117.43.38l-1.49.08-1.49-.1L113,.11l-1.49.3L110,.15l-1.53.11.16,1.58-.06,1.53-.16,1.52.15,1.52V8l-1.83.28-1.65-.49-.24-1.35-.11-1.53.38-1.52-.41-1.53.39-1.67L103.42.09l-1.49.36-1.49-.3L99,.11,97.47.23H96L94.69.49l-.06,1.35-.11,1.53,0,1.52-.14,1.52.28,1.66-1.91-.3-1.93.33L91,6.41l-.33-1.53,0-1.52L91,1.83,91,.25,89.42.18,87.93.32,86.44.13,85,0H83.47L82,.44,80.5.4,79,.27l.74,1.5-.11,1.68L80.14,5l.66,1.47L81,8l.59,1.49L82.23,11l-.08,1.67L83.07,14l.14,1.6.39,1.54.26,1.58.88,1.4.43,1.53-.09,1.67L86,24.73l.21,1.58.37,1.54.1.22-.1.55,0,1.55.2,1.56-.31,1.56v1.55l.56,1.56L86.58,38l.32,1.55,0,1.56-.16,1.55.11.64-1.41.51-1.49.5-1.4.69-1.33.85-1.52.48-1.32.84-1.18,1.06-1.24,1-.23.09.34-.7L76.46,47l.53-1.5L77.4,44l.13-1.61L78,40.82l.38-1.54.7-1.45.63-1.47-.16-1.69.91-1.4.21-1.58.59-1.48,0-1.64L82,27.13l.48-1.66-1.65.22-1.49-.38-1.48.25-1.49.3-1.48-.38-1.49.08-1.48-.14-1.36.29-.06,1.4.13,1.53-.32,1.52-.18,1.53.25,1.45-1.74.15H66.77l-.17-1.62.54-1.53-.4-1.52V27.11l.13-1.57-1.53.17-1.49-.09-1.49.14-1.49-.24-1.48-.1-1.49,0-1.35.31-.24,1.4-.14,1.53.15,1.52.34,1.53-.05,1.75-2,.08-2-.13L53,31.68l-.14-1.53.16-1.52-.26-1.52-.18-1.31-1.27-.27-1.49-.16-1.49.19-1.49.05-1.48.1-1.49-.29-1.35.29v1.4l-.34,1.53.46,1.52-.17,1.53,0,1.56-1.83-.08-1.94.21.44-1.7-.27-1.53.09-1.52.11-1.52L39,25.43l-1.65.37-1.49-.12-1.48-.26-1.49.38-1.48-.39-1.49.44-1.48-.34-1.64,0,.36,1.7L28,28.6l.23,1.59.54,1.49L29,33.25l.69,1.46-.06,1.66.57,1.49.29,1.56L30.93,41l.91,1.4.26,1.57.33,1.55L33,47l0,1.64.63,1.47.45,1.52.36.85,0,1.46.24,1.56L34.81,57l-.21,1.56-.3,1.56-.06,1.56.25,1.56,0,1.56v.65l-.45.32-1.38.72-1.32.84-1.4.7-1.34.82-1.34.81L26.25,70.9l-1.33.84-1,1.2-1.29.91-1,1.24L20.32,76l-.91,1.29-1.06,1.16-1,1.17-.52,1.56-.7.86-.21-.38-.57,1.23-.43.81-1,1.15L13,86.62h0l-.83,1.1-.12,1.62L11.2,90.7l-.15,1.57-.48,1.5.1,1.58-.12,1.55.36,1.53.14,1.53.29,1.5-.21,1.65.71,1.41.73,1.38.26,1.59,1,1.22.83,1.3.84,1.3,1.15,1.06.69,1.45.89,1.28,1.11,1.09,1.06,1.13,1.18,1,1.1,1.08.82,1.34,1.23,1,1,1.2,1,1.16.86,1.3,1.06,1.13,1,1.15.78,1.37,1.05,1.13,1.14,1.06,1.14,1.05.61.78-.08.29.41,1.26v1.25l-.07.6,0,.45-.4,1.43.31,1.53,0,1.26,0,.62L34.2,143l.21,1.55-.09,1.54.15.76-.09.53.06,1.16-.13.64-.11,1.54.24.82,0,.51.17,1.36v.4l-.05.46-.12.89v0l0,.16,0,1.55.11.55-.19.82.14,1.1-.17.61.15.61-.07.79,0,1.56.06.4.11,1.27v.18l-.3,1.26.15,1.55.13.49-.24,1.14.08,1.54.09.41.11,1.08,0,.95-.07.64v1.54l.16,1.05v.48l-.11,1.53.46,0,1.08.25h3.12l1.56-.21,1.56.24,1.55.05,1.11-.26.27,0,1.54.14,1.52-.07,1-.26.83.18,1.55.14,1.56-.17.49-.08.74,0,.72,0,1.16.37,1.56-.12,1.55-.13,1.56.08.7-.14.4.08.92-.19,1.09.12,1.55.21,1,.05.08,0h.11l.41,0,1.56-.17.51-.09.46,0,1,0,1.17.35.4-.11.52.14,1.53-.28.65.11,1.55-.09,1.55.16,1.55-.29.46,0v.06l1.1-.13,1.54.19,1.55.29.33-.06.16.06,1.57-.06,1.57-.19,1.38-.09,1.21.34,1.55-.35,1.41.08.74.26.41-.15,1.32.07.81-.18,1.53,0,1.15-.13,1.13.45.69-.11.13,0,.64-.15h.08l1.54,0,.19,0,.66.15.17,0,.52.08h1.54l1.54-.15.37,0,1.28.08.68-.15.74.07,1.13,0,.58.19.69-.25.07,0,1.56-.08,1.55.24,1.55.07,1.55-.09h.69l.18.07.27-.06h.41l1.56,0,.53-.1.36.05,1.56-.08h.14l.51.08.55-.12.37,0,1.57.15,1-.28,1-.13.28,0,1.41.34.74,0,.42.08,0-.1H134l1.55-.05,1.55.07,1.55-.15,1.55.34,1.55-.11,1.55,0,.11,0,.36.1,1.51-.3,1.13,0,1.55-.12,1.55.43,1-.36.89.17H152l.56.19,1.55-.3,1.55.32,1.3-.34.54.06h.28l1,.19.81-.21,1,.06.68.06.6.2.55-.11,1.23.06.45-.12.87.17,1.55-.1,1.55,0,1.55.09,1.07-.24.6,0,1.53.3,1.21-.09.25.07,1.55-.19,1.55.06.71-.12,1.06.23-.16-1.11.16-.64-.21-.63.07-1-.15-.62.3-.9-.43-1.49v-.12l.41-1.56v-1l.09-.5-.08-.76,0-.89-.27-1-.07-.44.38-1.55V163l-.22-1.55.1-1.41.05-.32-.13-1.16,0-.19,0-.84,0-.93.16-1.56-.1-.48-.07-.82V153l.33-1.08L179,151l0-.35.07-1.54-.1-1,.07-.9,0-.31.14-.9-.07-1.35.12-.55-.09-1.56.12-1.56-.2-.79,0-.36-.24-.85,0-1.11,0-.11.33-1-.07-.33,0-.1-.26-1.56.26-1.55v-.11l.79-.68,1.11-1.09,1.06-1.12.76-1.38,1.14-1.05.87-1.29,1.18-1,1-1.21.78-1.36,1.36-.87.69-1.45,1-1.16,1.14-1.06,1.08-1.1,1-1.14.75-1.39.93-1.23,1.22-1,.93-1.24.8-1.32,1.2-1.08.57-1.47.63-1.42.5-1.48.14-1.57.44-1.47.21-1.52.51-1.51-.17-1.55ZM179,75.64l-.33-1.56.39-1.55-.14-.91.41.22,1.44.67,1.29.91,1,1.26,1.3.89,1.22,1,1,1.23,1.31.91,1,1.27,1.35.9,1,1.24.58,1.54,1.16,1.1.69,1.25-1.06,1.06-.82,1.34-1.06,1.14-.66.83,0-.06.15.23-.57.77-1.21,1-1,1.2-.79,1.38-1,1.17-1.12,1.09-1.28.94-.85,1.32-1.14,1.07-.91,1.26-1.11,1.09-.33.35.38-1.11-.41-1.55L179,99l-.33-1.55.48-1.56L179,94.3l-.33-1.55.49-1.56,0-1.56L179,88.08l-.19-1.56V85l.29-1.55-.24-1.56L179,80.3V78.75l-.4-1.56Zm-10.91,5.57.06-1.55.26-1.54-.07-1.54L168,75l.2-1.54L168.15,72l.29-1.54.14-1.54-.32-1.54.32-1.54,0-1.54-.18-1.54,0-1.55.15-1.54,0-1.54L168,56.55V56.1l.92.19.92-.22.73.11.9-.16.5,0,1.15,0,.42.08,0,1.55-.13,1.57,0,1.56.38,1.56L173.39,64l-.09,1.56,0,1.56.43,1.56-.36,1.56.49,1.56-.42,1.56.36,1.56-.34,1.57-.15,1.56,0,1.56.55,1.56-.3,1.56-.24,1.56.49,1.56.08,1.55L173.62,89l-.19,1.56.27,1.56.11,1.56-.56,1.56.3,1.55,0,1.56-.14,1.55-.17,1.56-.05,1.56.42,1.56,0,1.56-.3,1.55-.11,1.56,0,.09-.06,0-1.56-.24-1.55-.24-1.43-.73-.37,0,.11-.63-.41-1.54.16-1.54.33-1.54.09-1.55-.27-1.54-.21-1.54.39-1.54-.24-1.55-.09-1.54.44-1.54-.49-1.54.46-1.54-.12-1.55L168,85.83l.38-1.54.2-1.54ZM154.62,70.38l0-1.67.63-1.51.62-1.52,1.29-1.12.95-1.27.8-1.45,0,.21.09-.11,1.11,1.17.84,1.38L162,65.74l.64,1.5.64,1.5.27,1.61.22,1.6.11,1.62-.16,1.63L164,77l-1.74.16-1.61-.25-1.62,0-1.61-.28-1.61.15L154,77l.06-1.77.06-1.63L154,71.93ZM90,133.19l.67-1.43.7-1.41.88-1.31,1.26-1,.75-1.4,1.3-1,.8-1.38,1.11-1.11,1.09-1.13,1.37-.82.87-1.39,1.51-.63,1.23-.95,1.27-.92,1.31-.85,1.08-1.21,1.28-.9,1.53-.51,1.27-.92,1.43-.67,1.27-1,1.59-.31,1.29-.94,1.43-.64,1.52-.42,1.33-.88,1.49-.49,1.43-.65,1.51-.45,1.53-.35,1.45-.6,1.55-.31,1.33-1,1.52-.38,1.52-.4L136,103l1.59-.14,1.56-.2,1.5-.43,1.46-.63,1.57-.1,1.5-.47,1.58-.07,1.47-.65,1.51-.41,1.52-.37,1.58-.09,1.52-.4,1.61.17,1.52-.41,1.8-.3-.75,1.65-.63,1.43-.72,1.4-.86,1.31-.92,1.26-.81,1.36-1.05,1.17-1.22,1-1.09,1.12-1,1.25-1.31.88-1.18,1-1.26.94-1.42.68-1.39.71-1.32.84-1.34.83-1.56.31L138,118l-1.46.54-1.53.25-1.48.51-1.49.53-1.59-.21-1.55.11-1.55.27-1.57-.17-1.57.07-1.57-.23-1.57.17-1.57.14-1.57.14-1.57-.42-1.53.41-1.46.46-1.2,1-1.34.74-1.34.74-1.42.61-1.34.75-1,.84-.23.14-.13.08-1.21.54-1.29.83-.86.59-.49.24-1.43.58-.79.49-.46.28-1.3.81-1,.76-.32.12-1.48.46-.59.5-.69.28-1.38.67-.47.44-.79.46-.58.59-.87.47Zm-2.31-13.53-1.62.09-1.56.32-1.54-.3-1.59.1-1.56-.17-1.51-.45-1.51-.42-1.53-.33-1.37-.82-1.47-.53-1.37-.73-1.35-.78-1.49-.53L67,114.19,65.92,113l-1.31-.85-1.2-1-1.24-1-1.17-1-.9-1.28-1.05-1.15-1.16-1.09-.72-1.41-.45-1.54-1-1.21L55.21,100l-1-1.47,1.73.48,1.55.22,1.58,0,1.54.28,1.53.37,1.56.22,1.58,0,1.51.47,1.57.21,1.48.57,1.56.21,1.5.51,1.6.06,1.44.72,1.51.4,1.63,0,1.45.66,1.53.38,1.44.66,1.53.38,1.51.44,1.37.86,1.53.38,1.54.36,1.33.91,1.44.61,1.38.76,1.58.33,1.51.48,1.16,1.21,1.49.52,1,.32L101,113l-1.1,1.16-1.47.67-1,1.27-1.2,1-1.12,1.1-1.35.86-.6,1.17H92.6L91,119.92l-1.63.23Zm56.73-49.48.3-1.56.07-1.55-.11-1.56,0-1.56V62.39l-.07-1.55-.08-1.56V57.73l.14-1.41,1.38-.18h.72l.71.22,1.48-.15h.15l.26,0,.35,0-.07.44.18,1.55-.15,1.55.07,1.55.26,1.55L150,64.31l-.23,1.55.17,1.54L149.58,69l.19,1.54V72l.21,1.54-.09,1.55-.12,1.54v1.55l-.06.33-.53-.14L148,77.35l-1.48-.49-1.6-.08-.22-.13V76.4l-.13-1.56,0-1.55-.18-1.56ZM126.38,54.82l.08-1.46.23-1.54-.17-1.55,0-1.55h0l1.16.77,1.3.86,1.48.5,1.35.77,1.28.88,1.34.78,1.18,1,1.42.7,1.18,1,.85,1.15-.22,1.45.09,1.56-.11,1.56.42,1.56-.18.66-.24.9.47,1.56L139,68l.36,1.56-.13,1.56,0,1.56,0,1.56-.08.88-.15.12-1.51-.11-1.55-.26-1.6.06-1.55.6h-1.59l-1.54.39-1.65-.18-1.47.44.29-1.06-.22-1.55.31-1.55-.26-1.55-.16-1.55V67.31l.2-1.55.13-1.55-.35-1.55.33-1.55-.19-1.55L126.9,58l-.17-1.55-.35-1.55ZM115.93,45.2l-.19-1.55.32-1.55-.18-1.54.23-1.55-.29-1.54-.09-1.55.1-1.55V32.83l.49-1.55,0-.18.47,0h1.54l.89-.14.51.1,1.13,0,.34.06.35,1.42V34l-.45,1.56.12,1.56.1,1.55.21,1.56L121,41.8l.1,1.56v1.55l.4,1.56L121,48l.25,1.56-.2,1.55.11,1.56.17,1.55-.4,1.56.46,1.55,0,1.55-.4,1.56.16,1.55-.2,1.55.42,1.55-.32,1.56.32,1.55-.2,1.55,0,1.55.15,1.55.09,1.55L121.27,76l.16,1.55-.08.51-.87.43L119,79l-1.42.71-1.33.88-.28.13-.06-1.54.19-1.55-.1-1.54V74.57L115.79,73l.34-1.54L116,69.94l.15-1.55-.36-1.54-.08-1.55.18-1.55,0-1.54.12-1.55-.3-1.55.33-1.54L115.81,56l.08-1.55,0-1.54.38-1.55-.14-1.54-.4-1.55.38-1.55Zm-2.24,44.16,1.19-1,1.19-1,1.24-.89,1.14-1,1.58-.33,1.18-1,1.44-.52,1.44-.49,1.23-1,1.46-.48,1.49-.36,1.57,0,1.48-.33,1.49-.42,1.53,0,1.52.14,1.6-.4L139,81l1.65-.28,1.44.82,1.55.31,1.41.74,1.52.45,1.34.84,1.33.85,1.2,1,1.35.81,1.19,1,1.31.91.91,1.31,1.33.93.65,1.51.8.92-1.4.26-1.56.07-1.52.42-1.49.52-1.6-.13-1.54.28-1.48.52-1.57.12-1.51.39-1.58.1-1.48.5-1.49.49-1.48.51-1.62,0-1.4.79-1.59.1-1.42.68-1.5.43-1.49.44-1.54.31-1.48.49-.12.07-.09-.24-.6-1.45-.48-1.5-.53-1.48L124,94.28l-.69-1.4-.72-1.4-.67-1.33-1.45-.33-1.53.29h0l-1.27-.34-.87.28-.88-.21-1.53.25h-.18l-1-.3ZM101.85,53.21l-.09-1.64.12-1.64.63-1.52.47-1.56.92-1.36,1-1.27.77-1.42,1.22-1.06-.28-.07.13-.19,1,1.34,1,1.29.8,1.4,1.11,1.27.1,1.69.58,1.51.35,1.6.21,1.63-.32,1.63v1.59l-1.58.32-1.61-.09-1.62-.34-1.6.36-1.62-.51-1.76.45.38-1.78Zm.27,49.75,1.5.39h1.55l1.51.16,1.5-.3,1.44-.42,1.49-.21,1.43-.48,1.2-.94,1.49-.49,1.14-1,.8-1.31L117.8,97l.58-1.35.13-.23.22,1.55,1,1.22.29,1.52.54,1.41.51,1.43,0,0-.63.31-1.55.35-1.44.64-1.41.69-1.34.84-1.5.52-1.49.52-1.45.63-1.2,1.09-1.4.7-1,.55-.9-.39-1.29-.9-1.25-1-1.63-.26-1.25-1-1.58-.34-1.26-1-1.42-.67-1.44-.62-1.53-.4-1.08-.46.51-.93L93,99.81l.67-1.47L94.56,97l.32-.65.18.9,1.2,1,1,1.11,1.09,1,1.26.79,1.33.67ZM92.27,51,92,49.48l.17-1.55-.12-1.55,0-1.55.33-1.55-.25-1.54L92,40.19,92,38.64l.27-1.55.07-1.54L92.14,34,92,32.45l.4-1.34,1.29-.05,1.54-.19.51,0,1.12.23.59,0,0,.22,0,1.55,0,1.55L97.69,36l-.09,1.55-.14,1.55-.27,1.55.28,1.55.14,1.55-.2,1.55L97.2,46.8l.31,1.55.09,1.55-.43,1.55L97.26,53l.34,1.55-.37,1.54-.07,1.55.2,1.55.14,1.54,0,1.55-.06,1.55.1,1.54,0,1.55-.27,1.54,0,1.55-.1,1.54.37,1.54,0,1.55-.17,1.55-.15,1.55-.17,1.54.54,1.55,0,.14-.42-.49-1.58-.43-1.28-1L93,78.42l-.57-.14.08-.9L92,75.83l.53-1.55-.28-1.56.27-1.55-.21-1.54L92,68.08l.47-1.55L92.37,65l.15-1.55-.31-1.55.26-1.55-.12-1.55,0-1.55-.45-1.56V54.12l.46-1.55Zm-18,21.51L74.07,71l.13-1.56,0-1.55L74.1,66.3,74,64.74l.23-1.21.06-.34,0-1.55-.08-1.56.12-1.55-.13-1.26L75.17,56l1.46-.66,1-1.23L79,53.39l1.34-.78,1.33-.79L83,51l1.19-1,1.48-.52L87,48.66h0l0,.17v1.56l-.45,1.55.13,1.55.06,1,0,.55.22,1.55-.54,1.55.1,1.55v1.55l.41,1.56-.48,1.55.26,1.54-.21,1.55L86.77,69l.16,1.55-.4,1.56L87,73.66l0,1.55-.28,1.12-1.37-.08-1.52-.44-1.51-.62-1.62.31-1.56-.43-1.59.26-1.53,0-1.53.2-.49.07.47-1.55ZM63.69,70.42l.3-1.54-.57-1.54.17-1.54.1-1.54-.26-1.54,0-1.55.25-1.54V58.09l-.28-1.54,0-.21,1.21-.15,1.54,0,1.53.14.27-.09h.8l.28,1.47-.22,1.57.07,1.56.13,1.56L68.94,64l.2,1.56-.25,1.56L69,68.68l.17,1.56-.31,1.56-.15,1.56.5,1.56-.56,1.57v0l-.18,0-1.42.6-1.61.16-1.22,1-.68.19-.05-.45,0-1.54L63.4,75l.38-1.54L64,72ZM61.37,86.17l1.32-.9,1.58-.49,1.13-1.17,1.52-.51,1.43-.67,1.38-.82,1.58-.25,1.51-.54,1.59-.09L76,80.28l1.6.08,1.52.43,1.56-.38,1.48.53,1.55,0,1.5.34,1.5.34,1.46.48,1.3.88,1.44.53,1.37.67,1.39.64L94.69,86l1.51.47,1,1.16,1.26.85,1.21.92.87.64h-.14l-.6,0-.77,0-.31.06-1.44-.32-1.56.13-.94,0-.31-.09L93,90.14l-.5,0-1-.1-.38,1.55L90.41,93l-.89,1.31-.72,1.39-.27,1.57L88,98.7l-.6,1.43-.34.54-1.27-.59L84.3,99.7,82.88,99l-1.54-.32-1.46-.57L78.29,98l-1.43-.72-1.52-.39-1.62,0-1.47-.58-1.55-.26-1.49-.51-1.55-.2-1.55-.22-1.48-.62-1.57-.09-1.58,0-.86-.33h0L60,93.83l-1.55-.22-1.53-.35-1.6.16H55l.1-.14,1.14-1.12.66-1.5,1.3-1,1-1.24,1.07-1.18ZM49.61,72l.55-1.54,0-1.67.9-1.39.3-1.65,1.23-1.15.82-1.38.94-1.33.11,0,.17-.13L55.68,63l1,1.31.81,1.42.38,1.62.82,1.42.21,1.62.18,1.6.29,1.61.07,1.63-.36,1.47H57.63L56,76.76,54.4,76.6l-1.61.26-1.61,0-1.53-.16-.17-1.55.22-1.63Zm-9.86-6.44L40.16,64,40,62.39l-.21-1.55.29-1.56-.44-1.55.3-1.54.89-.16.73,0,1.55.13,1.54-.05.46.09,0,.33L45,58.12l-.16,1.55.34,1.55L45,62.77l-.19,1.54.46,1.55-.22,1.54L45.42,69,45,70.49V72l.25,1.54L45,75.13l.17,1.54.2,1.55,0,1.54L45,81.31l-.11,1.54.34,1.55-.06,1.54.14,1.54,0,1.54-.09,1.55.08,1.54L45,93.65l-.1,1.54L45,96.73l0,1.54-.22,1.55v1.54l.4,1.54,0,1.55L44.81,106l.13,1.54,0,1.22-.09,0-1.58.17-1.46.62-1.58.2-.24.08-.26-.28-.08-.48.14-1.55,0-1.56-.08-1.56-.05-1.56.29-1.55,0-1.56-.08-1.56L40,96.64l-.15-1.56L40,93.53,40,92l-.13-1.56.28-1.55-.53-1.56.22-1.56-.21-1.56.1-1.55.14-1.56-.09-1.56L40,78l-.15-1.56-.22-1.56.31-1.55V71.73l.2-1.55-.52-1.56.44-1.55ZM20.42,84.7l.94-1.26.89-1.31L23.31,81l1-1.26,1.25-1,1.13-1.1,1-1.21,1.48-.69,1-1.21,1.46-.67,1.09-1.19,1.39-.75.26-.21,0,1,.32,1.56-.23,1.56.08,1.56.12,1.56v0l-.11,1.51.2,1.55-.26,1.56.09,1.56.17,1.56-.31,1.55-.15,1.56.5,1.55-.56,1.56.27,1.55,0,1.56.08,1.56,0,1.56,0,1.56.13,1.55-.14,1-.68-1-1.27-.93-.63-1.49-1.12-1.06-1.27-.93-.73-1.4-1.24-1-.65-1.47-1.18-1-1.24-1-.87-1.3-.2-.31-.64-1-1.17-1-.8-1.34-1.23-1ZM45.18,173l-.62-.16L43,173l-.66,0-.92-.24-1.49.28.07-1.54-.12-.8L40,170l.14-1.55-.12-1,0-.63,0-.4.1-1.07.07-1.54-.31-1.55-.1-1.54v-.15l0-1.55v-.16l.38-1.22-.33-1.23,0-.52.33-1.56-.18-1V153l-.19-1.54.2-1.55.18-1.54-.08-1.54-.25-1.24.06-.63v-.07l.29-1.14v-1.54l0-1.54-.13-.65.35.83,1.23,1,1,1.17,1.12,1.09,1.13,1.08.23.21,0,.19-.12.56.06.37-.32,1.14L44.9,149l-.08.24.1.27,0,1.19.25.85-.17.81,0,1.55-.2,1.56.32,1v.42l-.13,1.55,0,1.14-.17.62,0,1.55,0,.2L44.9,163l.19.93-.26.88.32,1v1.53L45,168,45,169.53l.26,1.56v1.55Zm35.33-27.8-.39,1.54,0,1.57L80,149l-.09.2-.06.78-.06.43,0,.08,0,.25,0,1.55,0,.7-.67.1-1.55-.45-1.57.24-1.56-.1-1.55-.26-1.58,0-1.45-.71-1.48-.49L66.84,151l-1.51-.39-1.55-.29-1.51-.43L60.93,149l-1.54-.39L58,147.91l-1.38-.74-1.25-1L54,145.42l-1.3-.86-1.08-1.17-1.25-.92-1.3-.88-1.28-.92-1.07-1.15-1.17-1.05-.84-1.34-.8-1.36-1.26-1-1.11-1.09-.63-1.49-1.21-1-1-1.2-1-1.16-1-1.18-1-1.18-1.17-1-1.11-1.08-.7-1.44-1.19-1-1-1.19-1-1.17-.8-1.34-1-1.19-1-1.18-1.05-1.14-1.39-.83-.8-1.35-.95-1.21-1.13-1.07L20.55,109,19.32,108l-.73-1.44-.88-1.33-.58-1.49-.58-1.49,0-1.64-.66-1.49.35-1.61L16.2,95.9l-.14-1.6.58-1.5L17,91.11l1.16,1.15.89,1.27L20,94.78l1.13,1.07L22,97.14l1.09,1.11,1,1.17.72,1.43,1.23,1,1.18,1,1,1.21.79,1.36,1,1.15,1.16,1,.73,1.42,1.2,1,.83,1.33,1.36.87.88,1.29,1.13,1.07.72,1.41,1.18,1,1.06,1.13.82,1.34,1.09,1.1,1.22,1,.73,1.41.85,1.3,1.16,1,.92,1.24,1.29.93.89,1.3,1.13,1.06,1.36.81.79,1.46,1.42.72,1.19,1,1.36.77,1.26.89,1.28.87,1.38.71,1.26.93,1.31.82,1.33.85,1.65.09,1.31.9,1.51.38,1.48.44,1.47.5,1.47.49,1.44.67,1.62-.16,1.45.71h1.57l1.45.37Zm4.13-13.45-.45,1.53-1,1.26-.3,1.57-.53,1.47-.49,1-.83.06-1.51-.54L78,137.88l-1.51-.39-1.61.07-1.4-.82-1.56-.22-1.37-.79-1.07-.07.86-1.14.26-1.63.73-1.4.79-1.37.59-1.46.66-1.44.8-1.36.66-1.43.26-.5.21.07,1.58.12,1.51.43,1.48.6,1.57.09,1.57.13,1.57-.06,1.56-.07,1.54.19.77,0,.17-.44L88,126.46l-.8,1.35L86.09,129l-.63,1.44Zm43.11,36.53.19,1.6.11,1.59,0,1.7-1.69.17-1.59-.57-1.58.6-1-.15-.07-1,0-1.54.16-1.55,0-1.55-.09-1.55-.27-1.54.11-1.55,0-1.55-.15-1.54v-1.55l.41-1.55-.12-1.54v-3.09l-.2-1.47-.49-1.38-.46-1.38-.74-1.25-.76-1.28-1.19-.87-1.11-1-1.29-.83-1.48-.59-1.16-.77L112,140.5l-1.18-.62-.47-.22a4.77,4.77,0,0,0-2.18-.86,8.29,8.29,0,0,0-4,.49l-1.52.43-1.23.7-1.35.93-1.24.89-1.32.75-1.24.9-1.34.6-1.11,1-1,1.08L92,147.79l-.52,1.4-.24,1.48-.2,1.48,0,1.55.49,1.55L91,156.8l.19,1.55-.15,1.55.48,1.55L91.05,163l.44,1.54-.06,1.55L91,167.64l.59,1.54v1.55l-.25,1.55-.07.71-1.08-.11-1.57.44L87,173.23l-1.4-.35-.1-1.43v-.51l.21-1.61-.09-1.6.07-1.6-.27-1v0l0-1.6.14-1.49.18-.64-.26-.92v-.14l.23-1.59,0-.45,0-.11-.05-.14-.06-.9-.2-1.6.16-1.59-.16-1.54.15-.63v-.5l.07-.52,0-.56.26-1.32-.06-.63.16-.56.29-1.54.27-.67.74-1.21.94-1.32.93-1.35,1-1,.84-.54,1.12-.79,1.26-.63,1.71-.83.81-.63.43-.14,1.18-1,1.42-.59,1-.6a15.75,15.75,0,0,1,10.82-1.12,14,14,0,0,1,3.93,1.71l1.8,1.16a3.17,3.17,0,0,0,.66.34l.08.09,1.29.79,1.31.76,1.35.72,1.45.61,1.18,1,.87,1.31,1.35.94.6,1.48.62,1.44.51,1.49,0,1.58,0,1.54.53,1.6-.24,1.6-.26,1.6.16,1.6.1,1.6-.22,1.6.3,1.59.16,1.6.06,1.59-.59,1.59Zm3.08-29.54-1.52-.13-.48-.58-1.2-1-1.31-.81-1.18-.94-1.27-.8-1.28-.85-1.34-.75L120,132l-1.37-.68-1.21-1-1.38-.66-1.42-.58-1.25-.89-1-.45,1.33-.66,1.15-1.09,1.36-.73,1.6-.06,1.6.25,1.59.12,1.58-.51,1.59.19,1.59-.24,1.58.41,1.56-.38,1.58.23,1.58,0,1.56-.21,1.52-.41,1.54-.28,1.46-.64.22-.06.53.76.22,1.62,1.09,1.21.73,1.38.43,1.53.64,1.41.83,1.33.71,1.39.62,1.35-1.07.43-1.62.08-1.36.9-1.56.2-1.53.32-1.53.27-1.51.46-1.56.16Zm42.75,12.74-.17.82-.14.54v.1l0,.09.09,1.51-.11,1.41.29,1.55,0,.15v1.55l.06.37-.34,1,.33,1.56v.77l-.23.88v3.08l.22,1.54-.24,1.54,0,1.55.34,1.6h-.8l-.8-.1-1.53,0-1.11.09-.51-.11-.67-.06-.07-.33.45-1.57-.5-1.56v-.29l.25,0,.07-1.52.26-1.55-.18-1,0-.24v-1.56l.1-1.56-.18-1.56-.06-1.56-.18-1.56.31-1.56,0-1.56-.2-1.56.21-1.5.06-.2-.29-1.55,0-.34.19-1.09,0-1,.19-.69-.09-.57.11-.63,1.06-.74,1.23-1L172,142l.61-1.54.86-.71,0,.93.1.49-.28.77.32.91-.25.92.18.72-.17.56.07,1.56,0,.13,0,.12.13,1.54.08,1.54Zm23.7-52.42,0,1.6-.42,1.55-.72,1.43-.35,1.58-1.06,1.24-1.06,1.17-.81,1.36-1,1.17-.89,1.28-1.05,1.15-1,1.17-1.13,1.06-1.06,1.13-.74,1.4-1,1.16-1.27.94-.8,1.36-1,1.12-1.05,1.14-.93,1.24-1.15,1-1.11,1.09-.91,1.26-1.06,1.12-.86,1.29-1.08,1.11-.83,1.32-1,1.19-1.34.88-.66,1.47-1.15,1-1.06,1.15-1.09,1.11-1,1.25-1.18,1-1.17,1-1.36.8-1.23,1-1.27.9-1.46.62-1.08,1.23-1.63.28-1.24,1-1.57.31-1.31.88-1.52.39-1.37.81-1.48.52-1.62,0-1.52.31-1.46.7-1.55.21-1.56.1-1.56.05h-3.12l-.77.1,0-.59-.06-1.54v-1.53L133,147.7v-1.55l-.43-1.47-.24-.68h.26l1.56-.09,1.49-.54,1.56-.09,1.48-.49,1.57-.15,1.48-.46,1.4-.74,1.62-.05,1.3-.94,1.44-.57,1.49-.47,1.44-.58,1.4-.68L153,137.1l1.28-.88,1.45-.59,1.25-.93,1.18-1,1.51-.59,1.08-1.14,1.16-1,1.1-1.1.87-1.32,1.13-1.06,1-1.18,1.29-.94.85-1.32,1.29-.94.78-1.37,1.08-1.12,1.05-1.14,1-1.2,1-1.15.72-1.43,1.08-1.1,1.2-1,1-1.19.76-1.39,1-1.14,1.4-.84.68-1.45,1.27-1,1-1.2,1-1.2.85-1.31.92-1.24,1.21-1,1-1.2.78-1.37,1-1.16,1.11-1.08,1.28-.93.84-1.32,1.14-1.06.9-1.25.27,1.53.24,1.54.15,1.56.43,1.57Z"/></g></g></svg>